<svg width="276" height="228" viewBox="0 0 276 228" fill="none" xmlns="http://www.w3.org/2000/svg">
<g clip-path="url(#clip0_12_195)">
<path d="M253.812 12.8618H22.1885C16.9718 12.8618 12.7035 17.1406 12.7035 22.3702V175.488C12.7035 180.718 16.9718 184.996 22.1885 184.996H253.812C259.028 184.996 263.296 180.718 263.296 175.488V22.3702C263.296 17.1406 259.028 12.8618 253.812 12.8618Z" fill="white"/>
<path d="M22.1885 184.996H253.812C259.028 184.996 263.296 180.718 263.296 175.488V168.483H12.7035V175.488C12.7035 180.749 16.9718 184.996 22.1885 184.996Z" fill="#353535"/>
<path d="M253.812 0.183838H22.1885C9.98453 0.183838 0.0569153 10.136 0.0569153 22.3702V175.488C0.0569153 187.722 9.98453 197.674 22.1885 197.674H253.812C266.015 197.674 275.943 187.722 275.943 175.488V22.3702C275.943 10.136 266.015 0.183838 253.812 0.183838ZM263.296 168.483V175.488C263.296 180.718 259.028 184.996 253.812 184.996H22.1885C16.9718 184.996 12.7035 180.718 12.7035 175.488V22.3702C12.7035 17.1406 16.9718 12.8618 22.1885 12.8618H253.812C259.028 12.8618 263.296 17.1406 263.296 22.3702V168.483ZM190.483 227.816H85.5163C82.0388 227.816 79.1934 224.964 79.1934 221.477C79.1934 217.991 82.0388 215.138 85.5163 215.138H190.483C193.961 215.138 196.807 217.991 196.807 221.477C196.807 224.964 193.961 227.816 190.483 227.816Z" fill="black"/>
<path d="M16.3078 161.764C15.4542 161.764 14.6005 161.415 13.9998 160.75C12.83 159.45 12.8933 157.453 14.1895 156.281L88.9627 86.679L122.508 123.477L204.363 31.3399L262.443 93.5567C263.644 94.8245 263.581 96.8529 262.316 98.0258C261.052 99.2303 259.06 99.167 257.858 97.8992L204.49 40.7215L122.603 132.922L88.5835 95.6172L18.4578 160.908C17.8254 161.479 17.0666 161.764 16.3078 161.764Z" fill="black"/>
<path d="M25.5715 123.477C25.5715 130.437 28.3262 137.112 33.2297 142.033C38.1332 146.955 44.7836 149.72 51.7184 149.72C58.6528 149.72 65.3035 146.955 70.2072 142.033C75.1104 137.112 77.8652 130.437 77.8652 123.477C77.8652 116.517 75.1104 109.842 70.2072 104.92C65.3035 99.9983 58.6528 97.2335 51.7184 97.2335C44.7836 97.2335 38.1332 99.9983 33.2297 104.92C28.3262 109.842 25.5715 116.517 25.5715 123.477Z" fill="#AAAAAA"/>
<path d="M32.9698 123.477C32.9697 125.945 33.4547 128.389 34.3969 130.669C35.3391 132.95 36.7201 135.021 38.4611 136.767C40.2021 138.512 42.2689 139.897 44.5437 140.841C46.8184 141.786 49.2563 142.272 51.7184 142.272C54.1806 142.272 56.6185 141.786 58.8932 140.841C61.168 139.897 63.2348 138.512 64.9757 136.767C66.7167 135.021 68.0975 132.95 69.0397 130.669C69.9822 128.389 70.467 125.945 70.467 123.477C70.467 118.492 68.4917 113.712 64.9757 110.186C61.4598 106.662 56.6909 104.682 51.7184 104.682C46.746 104.682 41.9771 106.662 38.4611 110.186C34.945 113.712 32.9698 118.492 32.9698 123.477Z" fill="#5C5C5C"/>
<path d="M42.1701 123.477C42.1701 124.738 42.417 125.987 42.897 127.152C43.3769 128.317 44.0803 129.376 44.967 130.268C45.8532 131.159 46.9058 131.867 48.0645 132.349C49.2227 132.832 50.4647 133.08 51.7184 133.08C52.9722 133.08 54.2138 132.832 55.3724 132.349C56.5306 131.867 57.5832 131.159 58.4699 130.268C59.3566 129.376 60.06 128.317 60.5399 127.152C61.0195 125.987 61.2667 124.738 61.2667 123.477C61.2667 122.216 61.0195 120.967 60.5399 119.802C60.06 118.637 59.3566 117.578 58.4699 116.686C57.5832 115.794 56.5306 115.087 55.3724 114.604C54.2138 114.122 52.9722 113.873 51.7184 113.873C50.4647 113.873 49.2227 114.122 48.0645 114.604C46.9058 115.087 45.8532 115.794 44.967 116.686C44.0803 117.578 43.3769 118.637 42.897 119.802C42.417 120.967 42.1701 122.216 42.1701 123.477Z" fill="black"/>
<path d="M159.784 56.2835C159.784 59.7299 160.46 63.1426 161.774 66.3265C163.088 69.5104 165.014 72.4038 167.442 74.8404C169.87 77.2774 172.753 79.2105 175.925 80.5294C179.097 81.8483 182.497 82.5271 185.931 82.5271C189.364 82.5271 192.765 81.8483 195.937 80.5294C199.109 79.2105 201.992 77.2774 204.419 74.8404C206.847 72.4038 208.773 69.5104 210.087 66.3265C211.401 63.1426 212.078 59.7299 212.078 56.2835C212.078 52.8372 211.401 49.4249 210.087 46.241C208.773 43.0567 206.847 40.1638 204.419 37.7269C201.992 35.2899 199.109 33.3569 195.937 32.038C192.765 30.7192 189.364 30.0404 185.931 30.0404C182.497 30.0404 179.097 30.7192 175.925 32.038C172.753 33.3569 169.87 35.2899 167.442 37.7269C165.014 40.1638 163.088 43.0567 161.774 46.241C160.46 49.4249 159.784 52.8372 159.784 56.2835Z" fill="#AAAAAA"/>
<path d="M167.182 56.2835C167.182 61.2683 169.157 66.049 172.674 69.5737C176.19 73.0987 180.958 75.0789 185.931 75.0789C190.903 75.0789 195.672 73.0987 199.188 69.5737C202.704 66.049 204.679 61.2683 204.679 56.2835C204.679 51.2988 202.704 46.5185 199.188 42.9934C195.672 39.4688 190.903 37.4886 185.931 37.4886C180.958 37.4886 176.19 39.4688 172.674 42.9934C169.157 46.5185 167.182 51.2988 167.182 56.2835Z" fill="#5C5C5C"/>
<path d="M176.383 56.2835C176.383 58.8309 177.388 61.2736 179.179 63.0745C180.97 64.8753 183.398 65.8871 185.931 65.8871C188.463 65.8871 190.892 64.8753 192.682 63.0745C194.473 61.2736 195.479 58.8309 195.479 56.2835C195.479 53.7366 194.473 51.2939 192.682 49.493C190.892 47.6918 188.463 46.68 185.931 46.68C183.398 46.68 180.97 47.6918 179.179 49.493C177.388 51.2939 176.383 53.7366 176.383 56.2835Z" fill="black"/>
<path d="M203.541 122.748C203.541 126.648 205.083 130.389 207.829 133.147C210.574 135.905 214.297 137.454 218.18 137.454C222.062 137.454 225.785 135.905 228.53 133.147C231.276 130.389 232.818 126.648 232.818 122.748C232.818 118.847 231.276 115.107 228.53 112.349C225.785 109.591 222.062 108.041 218.18 108.041C214.297 108.041 210.574 109.591 207.829 112.349C205.083 115.107 203.541 118.847 203.541 122.748Z" fill="#AAAAAA"/>
<path d="M207.683 122.748C207.683 125.539 208.789 128.215 210.757 130.188C212.726 132.162 215.396 133.27 218.18 133.27C220.963 133.27 223.633 132.162 225.602 130.188C227.57 128.215 228.676 125.539 228.676 122.748C228.676 119.957 227.57 117.28 225.602 115.307C223.633 113.334 220.963 112.225 218.18 112.225C215.396 112.225 212.726 113.334 210.757 115.307C208.789 117.28 207.683 119.957 207.683 122.748Z" fill="#5C5C5C"/>
<path d="M212.836 122.748C212.836 124.177 213.399 125.547 214.401 126.558C215.403 127.568 216.762 128.136 218.18 128.136C219.597 128.136 220.956 127.568 221.958 126.558C222.96 125.547 223.523 124.177 223.523 122.748C223.523 121.319 222.96 119.948 221.958 118.938C220.956 117.927 219.597 117.36 218.18 117.36C216.762 117.36 215.403 117.927 214.401 118.938C213.399 119.948 212.836 121.319 212.836 122.748Z" fill="black"/>
<path d="M114.224 179.957H63.132C61.5512 179.957 60.2866 178.689 60.2866 177.104C60.2866 175.52 61.5512 174.252 63.132 174.252H114.224C115.805 174.252 117.07 175.52 117.07 177.104C117.07 178.657 115.774 179.957 114.224 179.957ZM45.8694 179.957H37.4909C35.9101 179.957 34.6454 178.689 34.6454 177.104C34.6454 175.52 35.9101 174.252 37.4909 174.252H45.8694C47.4501 174.252 48.7148 175.52 48.7148 177.104C48.7148 178.657 47.4186 179.957 45.8694 179.957Z" fill="white"/>
</g>
<defs>
<clipPath id="clip0_12_195">
<rect width="276" height="228" fill="white"/>
</clipPath>
</defs>
</svg>