<svg width="61" height="61" viewBox="0 0 61 61" fill="none" xmlns="http://www.w3.org/2000/svg">
<circle cx="30.5" cy="30.5" r="30.5" fill="black"/>
<path d="M25.4653 27.52C25.5186 26.0933 25.9853 24.9933 26.8653 24.22C27.7453 23.4467 28.9386 23.06 30.4453 23.06C31.4453 23.06 32.2986 23.2333 33.0053 23.58C33.7253 23.9267 34.2653 24.4 34.6253 25C34.9986 25.6 35.1853 26.2733 35.1853 27.02C35.1853 27.9 34.9653 28.62 34.5253 29.18C34.0853 29.7267 33.572 30.1 32.9853 30.3V30.38C33.7453 30.6333 34.3453 31.0533 34.7853 31.64C35.2253 32.2267 35.4453 32.98 35.4453 33.9C35.4453 34.7267 35.252 35.46 34.8653 36.1C34.492 36.7267 33.9386 37.22 33.2053 37.58C32.4853 37.94 31.6253 38.12 30.6253 38.12C29.0253 38.12 27.7453 37.7267 26.7853 36.94C25.8386 36.1533 25.3386 34.9667 25.2853 33.38H28.6053C28.6186 33.9667 28.7853 34.4333 29.1053 34.78C29.4253 35.1133 29.892 35.28 30.5053 35.28C31.0253 35.28 31.4253 35.1333 31.7053 34.84C31.9986 34.5333 32.1453 34.1333 32.1453 33.64C32.1453 33 31.9386 32.54 31.5253 32.26C31.1253 31.9667 30.4786 31.82 29.5853 31.82H28.9453V29.04H29.5853C30.2653 29.04 30.812 28.9267 31.2253 28.7C31.652 28.46 31.8653 28.04 31.8653 27.44C31.8653 26.96 31.732 26.5867 31.4653 26.32C31.1986 26.0533 30.832 25.92 30.3653 25.92C29.8586 25.92 29.4786 26.0733 29.2253 26.38C28.9853 26.6867 28.8453 27.0667 28.8053 27.52H25.4653Z" fill="#FFD700"/>
</svg>
