<svg xmlns="http://www.w3.org/2000/svg" width="142" height="146" viewBox="0 0 142 146" fill="none">
  <path d="M68.0637 25.6607H5.24516C2.84952 25.6607 0.899704 23.7027 0.899704 21.2971C0.899704 18.8915 2.84952 16.9336 5.24516 16.9336H68.0637C70.4593 16.9336 72.4091 18.8915 72.4091 21.2971C72.4091 23.7027 70.4593 25.6607 68.0637 25.6607ZM5.24516 17.473C3.14495 17.473 1.43684 19.1882 1.43684 21.2971C1.43684 23.4061 3.14495 25.1213 5.24516 25.1213H68.0637C70.1639 25.1213 71.872 23.4061 71.872 21.2971C71.872 19.1882 70.1639 17.473 68.0637 17.473H5.24516Z" fill="#E2E3E4"/>
  <path d="M68.0637 76.7258H5.24517C2.92204 76.7258 1.034 74.8299 1.034 72.4971C1.034 70.1643 2.92204 68.2684 5.24517 68.2684H68.0637C70.3868 68.2684 72.2748 70.1643 72.2748 72.4971C72.2748 74.8299 70.3868 76.7258 68.0637 76.7258Z" fill="#FFD700"/>
  <path d="M47.4778 8.45737H4.21118C1.88805 8.45737 0 6.56147 0 4.22868C0 1.8959 1.88805 0 4.21118 0H47.4778C49.8009 0 51.689 1.8959 51.689 4.22868C51.689 6.56147 49.8009 8.45737 47.4778 8.45737Z" fill="#E2E3E4"/>
  <path d="M68.0637 42.7264H5.24516C2.84952 42.7264 0.899704 40.7685 0.899704 38.3629C0.899704 35.9573 2.84952 33.9994 5.24516 33.9994H68.0637C70.4593 33.9994 72.4091 35.9573 72.4091 38.3629C72.4091 40.7685 70.4593 42.7264 68.0637 42.7264ZM5.24516 34.5388C3.14495 34.5388 1.43684 36.254 1.43684 38.3629C1.43684 40.4719 3.14495 42.1871 5.24516 42.1871H68.0637C70.1639 42.1871 71.872 40.4719 71.872 38.3629C71.872 36.254 70.1639 34.5388 68.0637 34.5388H5.24516Z" fill="#E2E3E4"/>
  <path d="M68.0637 59.7949H5.24516C2.84952 59.7949 0.899704 57.837 0.899704 55.4314C0.899704 53.0257 2.84952 51.0678 5.24516 51.0678H68.0637C70.4593 51.0678 72.4091 53.0257 72.4091 55.4314C72.4091 57.837 70.4593 59.7949 68.0637 59.7949ZM5.24516 51.6072C3.14495 51.6072 1.43684 53.3224 1.43684 55.4314C1.43684 57.5403 3.14495 59.2555 5.24516 59.2555H68.0637C70.1639 59.2555 71.872 57.5403 71.872 55.4314C71.872 53.3224 70.1639 51.6072 68.0637 51.6072H5.24516Z" fill="#E2E3E4"/>
  <path d="M3.08586 13.7999H19.5492C19.9413 13.7999 20.2609 14.1181 20.2609 14.5145C20.2609 14.9083 19.9413 15.2292 19.5492 15.2292H3.08586C2.69374 15.2292 2.37415 14.911 2.37415 14.5145C2.37415 14.1208 2.69374 13.7999 3.08586 13.7999Z" fill="#E2E3E4"/>
  <path d="M3.08586 31.2701H19.5492C19.9413 31.2701 20.2609 31.5884 20.2609 31.9821C20.2609 32.3759 19.9413 32.6968 19.5492 32.6968H3.08586C2.69374 32.6968 2.37415 32.3786 2.37415 31.9848C2.37415 31.5911 2.69374 31.2701 3.08586 31.2701Z" fill="#E2E3E4"/>
  <path d="M3.08586 48.7431H19.5492C19.9413 48.7431 20.2609 49.0614 20.2609 49.4578C20.2609 49.8515 19.9413 50.1698 19.5492 50.1698H3.08586C2.69374 50.1698 2.37415 49.8515 2.37415 49.4551C2.37415 49.0614 2.69374 48.7431 3.08586 48.7431Z" fill="#E2E3E4"/>
  <path d="M120.072 35.6687L114.067 37.6536V28.9724H119.516L120.072 35.6687Z" fill="#9F616A"/>
  <path d="M114.811 31.3753C118.116 31.3753 120.795 28.6852 120.795 25.3667C120.795 22.0482 118.116 19.3581 114.811 19.3581C111.506 19.3581 108.827 22.0482 108.827 25.3667C108.827 28.6852 111.506 31.3753 114.811 31.3753Z" fill="#9F616A"/>
  <path d="M116.455 24.7707C115.453 24.741 114.795 23.7243 114.405 22.7966C114.016 21.8689 113.616 20.8036 112.687 20.4207C111.927 20.1078 110.586 22.2249 109.987 21.6612C109.362 21.0733 109.971 18.0555 110.635 17.5134C111.298 16.9714 112.206 16.8662 113.06 16.8257C115.144 16.7286 117.242 16.8986 119.285 17.3274C120.55 17.5916 121.85 17.9908 122.763 18.9077C123.918 20.0728 124.214 21.8284 124.297 23.4708C124.383 25.151 124.286 26.9093 123.472 28.3791C122.659 29.8489 120.956 30.933 119.323 30.5582C119.159 29.6682 119.326 28.754 119.39 27.8478C119.452 26.9444 119.387 25.9681 118.837 25.248C118.289 24.528 117.113 24.2421 116.473 24.8813" fill="#2F2E43"/>
  <path d="M123.816 26.8527C124.415 26.4131 125.132 26.0436 125.868 26.1353C126.663 26.2324 127.337 26.8904 127.541 27.6698C127.745 28.4492 127.517 29.3068 127.023 29.9433C126.531 30.5797 125.798 31.0005 125.025 31.2108C124.576 31.3322 124.085 31.3834 123.658 31.2C123.029 30.9276 122.688 30.1213 122.935 29.4794" fill="#2F2E43"/>
  <path d="M100.918 83.3871C100.518 85.3612 101.251 87.1654 102.551 87.4162C103.851 87.667 105.228 86.2673 105.626 84.2932C105.795 83.5057 105.768 82.6913 105.548 81.9146L110.498 50.9681L104.307 49.7976L101.917 81.2161C101.409 81.8526 101.068 82.5969 100.918 83.3898V83.3871Z" fill="#9F616A"/>
  <path d="M114.003 33.6704H109.778C106.791 34.1261 105.98 35.7254 105.301 38.6811C104.264 43.1903 102.94 49.1935 103.203 49.2825C103.625 49.4228 110.817 52.8208 114.483 52.0441L114.003 33.6704Z" fill="#E2E3E4"/>
  <path d="M118.088 132.243H112.464V140.256H118.088V132.243Z" fill="#9F616A"/>
  <path d="M106.988 145.105C106.397 145.105 105.87 145.091 105.473 145.054C103.98 144.916 102.553 143.808 101.836 143.16C101.514 142.869 101.412 142.405 101.579 142.006C101.699 141.72 101.938 141.505 102.237 141.421L106.184 140.288L112.576 135.957L112.649 136.087C112.676 136.135 113.304 137.27 113.514 138.036C113.594 138.328 113.573 138.57 113.452 138.759C113.369 138.889 113.251 138.964 113.157 139.007C113.272 139.129 113.635 139.377 114.752 139.555C116.382 139.814 116.726 138.117 116.739 138.047L116.75 137.991L116.798 137.958C117.575 137.457 118.053 137.227 118.216 137.276C118.318 137.305 118.49 137.359 118.955 141.979C119.001 142.125 119.326 143.187 119.105 144.204C118.866 145.31 114.054 144.93 113.089 144.843C113.063 144.846 109.458 145.105 106.99 145.105H106.988Z" fill="#2F2E43"/>
  <path d="M134.101 125.948L129.329 128.937L133.552 135.735L138.324 132.747L134.101 125.948Z" fill="#9F616A"/>
  <path d="M127.764 144.007C127.103 144.007 126.496 143.926 126.064 143.851C125.64 143.775 125.307 143.435 125.237 143.009C125.188 142.702 125.277 142.392 125.487 142.163L128.239 139.104L131.382 132.033L131.511 132.103C131.559 132.13 132.69 132.759 133.272 133.298C133.495 133.503 133.605 133.721 133.6 133.945C133.597 134.102 133.538 134.226 133.479 134.315C133.64 134.358 134.078 134.374 135.12 133.932C136.64 133.287 136.039 131.664 136.012 131.596L135.99 131.542L136.015 131.491C136.409 130.652 136.691 130.205 136.858 130.159C136.963 130.129 137.134 130.083 139.963 133.759C140.078 133.856 140.913 134.587 141.262 135.566C141.641 136.631 137.357 138.867 136.495 139.304C136.468 139.325 131.986 142.597 130.144 143.527C129.413 143.897 128.548 144.01 127.761 144.01L127.764 144.007Z" fill="#2F2E43"/>
  <path d="M122.229 65.2399H106.483L105.054 79.9486L111.306 134.296H119.344L116.13 102.907L129.169 131.246L136.313 126.224L126.131 99.7678C126.131 99.7678 129.768 76.7204 126.91 70.9788C124.052 65.2399 122.229 65.2399 122.229 65.2399Z" fill="#2F2E43"/>
  <path d="M130.063 66.1352H105.054L112.558 33.6704H123.454L130.063 66.1352Z" fill="#E2E3E4"/>
  <path d="M132.314 83.3871C132.714 85.3612 131.981 87.1654 130.681 87.4162C129.381 87.667 128.003 86.2673 127.606 84.2932C127.436 83.5057 127.463 82.6913 127.684 81.9146L122.734 50.9681L128.924 49.7976L131.315 81.2161C131.822 81.8526 132.163 82.5969 132.314 83.3898V83.3871Z" fill="#9F616A"/>
  <path d="M119.229 33.6704H123.454C126.44 34.1261 127.251 35.7254 127.931 38.6811C128.967 43.1903 130.291 49.1935 130.028 49.2825C129.606 49.4228 122.414 52.8208 118.748 52.0441L119.229 33.6704Z" fill="#E2E3E4"/>
</svg>