<svg width="61" height="61" viewBox="0 0 61 61" fill="none" xmlns="http://www.w3.org/2000/svg">
<circle cx="30.5" cy="30.5" r="30.5" fill="black"/>
<path d="M25.0671 35.26C25.5204 34.9 25.7271 34.7333 25.6871 34.76C26.9938 33.68 28.0204 32.7933 28.7671 32.1C29.5271 31.4067 30.1671 30.68 30.6871 29.92C31.2071 29.16 31.4671 28.42 31.4671 27.7C31.4671 27.1533 31.3404 26.7267 31.0871 26.42C30.8338 26.1133 30.4538 25.96 29.9471 25.96C29.4404 25.96 29.0404 26.1533 28.7471 26.54C28.4671 26.9133 28.3271 27.4467 28.3271 28.14H25.0271C25.0538 27.0067 25.2938 26.06 25.7471 25.3C26.2138 24.54 26.8204 23.98 27.5671 23.62C28.3271 23.26 29.1671 23.08 30.0871 23.08C31.6738 23.08 32.8671 23.4867 33.6671 24.3C34.4804 25.1133 34.8871 26.1733 34.8871 27.48C34.8871 28.9067 34.4004 30.2333 33.4271 31.46C32.4538 32.6733 31.2138 33.86 29.7071 35.02H35.1071V37.8H25.0671V35.26Z" fill="#FFD700"/>
</svg>
