<svg xmlns="http://www.w3.org/2000/svg" width="188" height="130" viewBox="0 0 188 130" fill="none">
  <path d="M161.4 54.28C163.991 57.0272 166.882 57.4656 170.073 55.5951C168.734 53.4259 168.415 51.0665 168.772 48.5811H162.556C162.832 50.7652 162.758 52.7988 161.4 54.28Z" fill="#FFB8B8"/>
  <path d="M171.663 126.174L174.988 124.421L176.433 105.862V96.072L168.772 95.9259L170.94 105.716L171.663 126.174Z" fill="#FFB8B8"/>
  <path d="M162.026 126.174L158.701 124.421L157.256 105.862V96.072L164.917 95.9259L162.748 105.716L162.026 126.174Z" fill="#FFB8B8"/>
  <path d="M156.919 98.1178L165.014 97.3872L166.315 89.9347L167.905 97.241L176.722 96.6565C176.915 93.106 176.426 89.4517 175.277 85.6971L155.907 85.2587L156.919 98.1178Z" fill="#2F2E41"/>
  <path d="M148.505 70.1298L138.768 62.5501C138.666 62.4714 138.555 62.4069 138.437 62.3583L137.022 61.7762C135.885 61.3087 133.72 59.7537 134.776 58.1524C135.627 56.8615 138.886 59.1741 139.287 60.0309C139.414 60.3005 139.622 60.5227 139.881 60.6658L141.86 61.7619C141.908 61.7886 141.957 61.8124 142.008 61.8332L149.542 64.9201C149.751 65.0057 149.977 65.0397 150.201 65.0192C150.426 64.9987 150.642 64.9244 150.833 64.8024L152.198 63.9269C152.393 63.8023 152.614 63.7275 152.844 63.7089C153.073 63.6903 153.303 63.7285 153.515 63.8202C153.726 63.9119 153.913 64.0543 154.057 64.235C154.202 64.4158 154.301 64.6296 154.346 64.8577L154.797 67.1609C154.862 67.4925 154.809 67.8367 154.647 68.1324C154.485 68.4282 154.225 68.6565 153.913 68.7769L149.873 70.3333C149.647 70.4205 149.402 70.4476 149.163 70.4119C148.923 70.3763 148.697 70.2792 148.505 70.1298Z" fill="#FFB8B8"/>
  <path d="M150.314 64.6073C153.01 63.8765 152.727 67.6839 154.783 69.556L158.827 66.3286L156.485 54.8645C155.857 55.046 155.278 55.3728 154.796 55.819C154.314 56.2652 153.942 56.8186 153.708 57.4355L150.314 64.6073Z" fill="#FFD700"/>
  <path d="M155.329 85.9893H175.711C172.412 77.0035 172.733 67.7615 175.542 58.3437C175.589 58.1873 175.581 58.0192 175.518 57.8684C175.456 57.7176 175.344 57.5934 175.2 57.5174L169.35 54.4261C167.054 55.9366 164.586 55.4724 161.978 53.4032L155.618 55.1567C157.349 65.6688 157.398 75.965 155.329 85.9893Z" fill="#FFD700"/>
  <path d="M160.425 129.606L151.931 129.97C151.561 129.986 151.199 129.863 150.913 129.625C150.628 129.386 150.439 129.05 150.385 128.68C150.329 128.306 150.414 127.925 150.622 127.611C150.831 127.297 151.147 127.073 151.511 126.983L152.951 126.626L158.614 123.309C159.453 124.187 160.608 124.929 162.02 125.562L162.037 127.894C162.04 128.335 161.873 128.76 161.573 129.079C161.272 129.398 160.861 129.587 160.425 129.606Z" fill="#2F2E41"/>
  <path d="M173.193 129.476L181.687 129.84C182.057 129.855 182.42 129.732 182.705 129.494C182.991 129.256 183.179 128.92 183.234 128.549C183.289 128.176 183.204 127.794 182.996 127.481C182.787 127.167 182.471 126.943 182.108 126.853L180.667 126.496L175.004 123.178C174.165 124.056 173.01 124.799 171.598 125.431L171.582 127.764C171.578 128.205 171.745 128.629 172.045 128.949C172.346 129.268 172.757 129.457 173.193 129.476Z" fill="#2F2E41"/>
  <path d="M165.014 51.2113C167.568 51.2113 169.639 49.1178 169.639 46.5353C169.639 43.9528 167.568 41.8593 165.014 41.8593C162.459 41.8593 160.388 43.9528 160.388 46.5353C160.388 49.1178 162.459 51.2113 165.014 51.2113Z" fill="#FFB8B8"/>
  <path d="M172.241 84.5281L170.713 87.5319C170.578 87.7969 170.5 88.0879 170.485 88.3855C170.469 88.6832 170.516 88.9808 170.622 89.2589C170.728 89.5369 170.891 89.7891 171.101 89.9989C171.31 90.2086 171.562 90.3712 171.838 90.4758C172.13 90.5866 172.443 90.6298 172.754 90.6023C173.065 90.5747 173.366 90.4771 173.634 90.3166C173.903 90.1562 174.133 89.9369 174.307 89.6749C174.48 89.413 174.594 89.115 174.639 88.8028L175.277 84.3819L177.59 73.2764L177.445 67.7236H172.819C174.397 71.8536 173.615 77.9454 172.241 84.5281Z" fill="#FFB8B8"/>
  <path d="M172.097 68.3081H178.312L177.41 61.4171C177.288 60.4825 176.936 59.5938 176.387 58.8321C175.837 58.0704 175.108 57.4599 174.265 57.0564L172.097 68.3081Z" fill="#FFD700"/>
  <path d="M169.931 43.9597C170.024 43.335 169.985 42.6977 169.817 42.0892C169.65 41.4807 169.357 40.9148 168.959 40.4282C168.17 39.4842 166.847 38.7114 164.652 39.076C159.864 39.8713 158.483 43.901 158.952 44.9144C159.421 45.9278 160.859 48.2771 160.859 48.2771C160.859 48.2771 159.804 45.9516 160.949 45.4782C162.095 45.0049 166.527 43.1401 168.075 43.9802C168.513 44.2025 168.884 44.5381 169.152 44.9529C169.42 45.3678 169.575 45.8469 169.6 46.3417L169.931 43.9597Z" fill="#2F2E41"/>
  <path d="M90.7591 24.4989L88.8993 25.4528C86.7571 21.1888 83.9191 17.3204 80.5046 14.0103C63.7364 -2.28559 36.9795 -1.75282 20.8591 15.1979C4.73868 32.1486 5.26572 59.1966 22.034 75.4925C25.2254 78.6003 28.8817 81.1799 32.868 83.1364L31.9582 85.0334C25.6397 81.932 20.1419 77.3553 15.919 71.6814C11.6962 66.0074 8.86953 59.3992 7.67259 52.4026C6.47565 45.406 6.9428 38.222 9.03543 31.444C11.1281 24.666 14.7861 18.4886 19.7073 13.4223C24.6286 8.356 30.6717 4.54614 37.3375 2.30751C44.0032 0.0688883 51.1002 -0.534239 58.0422 0.547964C64.9841 1.63017 71.5716 4.36664 77.2605 8.53128C82.9494 12.6959 87.5764 18.1692 90.7591 24.4989Z" fill="#E6E6E6"/>
  <path d="M27.8385 63.7199C25.1029 66.5964 23.6098 70.4536 23.6875 74.443C23.7652 78.4323 25.4075 82.2271 28.253 84.9924C31.0985 87.7578 34.9142 89.2672 38.8606 89.1886C42.807 89.11 46.5609 87.4499 49.2965 84.5734L51.8587 81.8793L30.4007 61.0258L27.8385 63.7199Z" fill="#E6E6E6"/>
  <path d="M28.963 59.4956C28.3541 60.1374 28.0218 60.9971 28.0391 61.8861C28.0565 62.7751 28.4219 63.6209 29.0554 64.2379L48.7366 83.3647C49.3709 83.9811 50.2215 84.3176 51.1013 84.3001C51.9811 84.2826 52.8179 83.9125 53.4278 83.2712C54.0376 82.63 54.3705 81.7701 54.3532 80.8808C54.3358 79.9914 53.9697 79.1455 53.3354 78.529L33.6542 59.4022C33.0194 58.7867 32.1689 58.4509 31.2895 58.4684C30.41 58.4859 29.5733 58.8553 28.963 59.4956Z" fill="#535461"/>
  <path d="M87.9922 43.8846L90.5544 41.1904C93.29 38.314 94.7831 34.4568 94.7054 30.4674C94.6277 26.4781 92.9854 22.6833 90.1399 19.918C88.731 18.5487 87.069 17.4734 85.249 16.7534C83.4289 16.0334 81.4864 15.6829 79.5323 15.7218C75.5859 15.8004 71.832 17.4605 69.0964 20.337L66.5342 23.0311L87.9922 43.8846Z" fill="#E6E6E6"/>
  <path d="M64.9651 21.6392C64.3562 22.2809 64.024 23.1406 64.0413 24.0296C64.0586 24.9187 64.4241 25.7645 65.0575 26.3814L84.7387 45.5082C85.3732 46.1239 86.2236 46.4598 87.1029 46.442C87.9823 46.4241 88.8187 46.0541 89.4283 45.4131C90.0378 44.7722 90.3707 43.9128 90.3537 43.0238C90.3366 42.1349 89.9712 41.2891 89.3375 40.6725L69.6563 21.5458C69.0215 20.9302 68.1711 20.5944 67.2916 20.6119C66.4121 20.6294 65.5755 20.9988 64.9651 21.6392Z" fill="#535461"/>
  <path d="M73.2674 65.8407V64.2866C73.2674 64.2866 79.9757 60.4722 85.4261 64.2866V65.6994L73.2674 65.8407Z" fill="#535461"/>
  <path d="M134.34 65.8407V64.2866C134.34 64.2866 141.048 60.4722 146.499 64.2866V65.6994L134.34 65.8407Z" fill="#535461"/>
  <path d="M93.3921 65.6994H86.8236C86.8236 65.6994 85.1466 63.7215 79.5564 63.8628C73.9662 64.0041 72.8482 65.6994 72.8482 65.6994C72.8482 65.6994 67.3278 69.4432 66.0701 74.1053C66.0701 74.1053 59.292 94.6609 59.1522 110.766C59.0124 126.872 65.1616 129.132 68.376 129.556C71.5904 129.98 77.3203 129.415 82.9105 115.146L85.2863 106.811C85.2863 106.811 85.7056 101.866 90.7368 104.974C95.7679 108.082 100.24 103.279 100.24 103.279H119.107C119.107 103.279 125.396 107.234 131.126 104.126C131.126 104.126 133.362 101.16 135.458 111.19C135.458 111.19 141.887 131.816 151.81 129.697C161.732 127.578 160.614 110.342 160.614 110.342C160.614 110.342 159.286 83.9946 153.836 74.6704C153.836 74.6704 148.595 64.993 145.101 64.5692C145.101 64.5692 137.555 63.1564 134.62 64.4279L132.943 65.8407L93.3921 65.6994Z" fill="#E6E6E6"/>
  <path d="M78.1589 91.8353C84.8739 91.8353 90.3175 86.3325 90.3175 79.5444C90.3175 72.7563 84.8739 67.2534 78.1589 67.2534C71.4438 67.2534 66.0002 72.7563 66.0002 79.5444C66.0002 86.3325 71.4438 91.8353 78.1589 91.8353Z" fill="#535461"/>
  <path d="M141.607 91.8353C148.322 91.8353 153.766 86.3325 153.766 79.5444C153.766 72.7563 148.322 67.2534 141.607 67.2534C134.892 67.2534 129.449 72.7563 129.449 79.5444C129.449 86.3325 134.892 91.8353 141.607 91.8353Z" fill="#535461"/>
  <path d="M80.2775 76.8036L78.6564 78.2531C78.5191 78.3753 78.3425 78.4427 78.1595 78.4427C77.9766 78.4427 77.8 78.3753 77.6627 78.2531L76.0388 76.8036C75.9593 76.7329 75.8956 76.646 75.8518 76.5486C75.808 76.4512 75.785 76.3455 75.7844 76.2385V72.2503C75.7848 72.049 75.8642 71.856 76.0051 71.7138C76.1461 71.5716 76.3371 71.4917 76.5363 71.4917H79.7856C79.9846 71.4913 80.1757 71.5709 80.3167 71.7129C80.4577 71.8549 80.5371 72.0477 80.5375 72.2489V76.2357C80.5366 76.3436 80.5129 76.4501 80.4681 76.548C80.4233 76.646 80.3583 76.7331 80.2775 76.8036Z" fill="#E6E6E6"/>
  <path d="M80.2775 82.2837L78.6564 80.8356C78.5191 80.7135 78.3425 80.6461 78.1595 80.6461C77.9766 80.6461 77.8 80.7135 77.6627 80.8356L76.0388 82.2851C75.9593 82.3559 75.8956 82.4428 75.8518 82.5402C75.808 82.6376 75.785 82.7432 75.7844 82.8502V86.8342C75.784 87.0354 75.8628 87.2285 76.0032 87.371C76.1437 87.5136 76.3345 87.5939 76.5335 87.5943H79.7856C79.9846 87.5946 80.1757 87.5151 80.3167 87.373C80.4577 87.231 80.5371 87.0382 80.5375 86.837V82.8516C80.5366 82.7437 80.5129 82.6373 80.4681 82.5393C80.4233 82.4414 80.3583 82.3542 80.2775 82.2837Z" fill="#E6E6E6"/>
  <path d="M75.449 81.6889L76.8829 80.0473C77.0037 79.9085 77.0704 79.73 77.0704 79.5451C77.0704 79.3602 77.0037 79.1816 76.8829 79.0428L75.449 77.4012C75.379 77.321 75.293 77.2566 75.1966 77.2123C75.1003 77.168 74.9958 77.1448 74.89 77.1441H70.9489C70.7497 77.1445 70.5588 77.2247 70.4181 77.3672C70.2774 77.5097 70.1984 77.7028 70.1984 77.9042V81.1888C70.198 81.39 70.2768 81.5831 70.4172 81.7257C70.5577 81.8682 70.7485 81.9485 70.9475 81.9489H74.8914C74.9972 81.9477 75.1016 81.924 75.1977 81.8792C75.2938 81.8344 75.3794 81.7696 75.449 81.6889Z" fill="#E6E6E6"/>
  <path d="M80.8701 81.6889L79.439 80.0459C79.3179 79.9073 79.251 79.7287 79.251 79.5437C79.251 79.3587 79.3179 79.1801 79.439 79.0414L80.8729 77.3998C80.9429 77.3195 81.0288 77.2551 81.1252 77.2108C81.2215 77.1665 81.3261 77.1433 81.4319 77.1427H85.373C85.572 77.1423 85.7631 77.2219 85.9041 77.3639C86.0451 77.5059 86.1245 77.6987 86.1249 77.8999V81.1874C86.1252 81.3886 86.0465 81.5817 85.906 81.7243C85.7656 81.8668 85.5748 81.9471 85.3758 81.9475H81.4333C81.3266 81.9473 81.2212 81.9242 81.1241 81.8796C81.027 81.835 80.9404 81.77 80.8701 81.6889Z" fill="#E6E6E6"/>
  <path d="M94.6499 101.866C99.5125 101.866 103.454 97.8811 103.454 92.9655C103.454 88.05 99.5125 84.0652 94.6499 84.0652C89.7873 84.0652 85.8454 88.05 85.8454 92.9655C85.8454 97.8811 89.7873 101.866 94.6499 101.866Z" fill="#535461"/>
  <path d="M125.116 101.866C129.979 101.866 133.921 97.8811 133.921 92.9655C133.921 88.05 129.979 84.0652 125.116 84.0652C120.254 84.0652 116.312 88.05 116.312 92.9655C116.312 97.8811 120.254 101.866 125.116 101.866Z" fill="#535461"/>
  <path d="M94.6499 98.8991C97.8916 98.8991 100.52 96.2426 100.52 92.9656C100.52 89.6885 97.8916 87.032 94.6499 87.032C91.4081 87.032 88.7802 89.6885 88.7802 92.9656C88.7802 96.2426 91.4081 98.8991 94.6499 98.8991Z" fill="#E6E6E6"/>
  <path d="M94.6499 97.0625C93.8483 97.0625 93.0647 96.8222 92.3982 96.372C91.7317 95.9219 91.2123 95.282 90.9055 94.5334C90.5988 93.7848 90.5185 92.961 90.6749 92.1662C90.8313 91.3715 91.2173 90.6415 91.7841 90.0685C92.3509 89.4955 93.073 89.1053 93.8592 88.9473C94.6454 88.7892 95.4603 88.8703 96.2009 89.1804C96.9415 89.4905 97.5744 90.0156 98.0198 90.6894C98.4651 91.3631 98.7028 92.1552 98.7028 92.9655C98.7016 94.0517 98.2742 95.0931 97.5144 95.8612C96.7546 96.6292 95.7244 97.0613 94.6499 97.0625ZM94.6499 89.1511C93.9036 89.1511 93.1741 89.3748 92.5535 89.7939C91.933 90.2131 91.4494 90.8088 91.1638 91.5058C90.8782 92.2028 90.8034 92.9698 90.949 93.7097C91.0946 94.4496 91.454 95.1293 91.9817 95.6627C92.5094 96.1962 93.1818 96.5595 93.9138 96.7067C94.6457 96.8539 95.4044 96.7783 96.0939 96.4896C96.7834 96.2009 97.3727 95.712 97.7874 95.0847C98.202 94.4574 98.4233 93.72 98.4233 92.9655C98.4221 91.9542 98.0242 90.9847 97.3168 90.2696C96.6094 89.5545 95.6503 89.1522 94.6499 89.1511Z" fill="#535461"/>
  <path d="M125.116 98.8991C128.358 98.8991 130.986 96.2426 130.986 92.9656C130.986 89.6885 128.358 87.032 125.116 87.032C121.875 87.032 119.247 89.6885 119.247 92.9656C119.247 96.2426 121.875 98.8991 125.116 98.8991Z" fill="#E6E6E6"/>
  <path d="M125.116 97.0625C124.315 97.0625 123.531 96.8222 122.865 96.372C122.198 95.9219 121.679 95.282 121.372 94.5334C121.065 93.7848 120.985 92.961 121.141 92.1662C121.298 91.3715 121.684 90.6415 122.251 90.0685C122.817 89.4955 123.54 89.1053 124.326 88.9473C125.112 88.7892 125.927 88.8703 126.667 89.1804C127.408 89.4905 128.041 90.0156 128.486 90.6894C128.932 91.3631 129.169 92.1552 129.169 92.9655C129.168 94.0517 128.741 95.0931 127.981 95.8612C127.221 96.6292 126.191 97.0613 125.116 97.0625ZM125.116 89.1511C124.37 89.1511 123.641 89.3748 123.02 89.7939C122.4 90.2131 121.916 90.8088 121.63 91.5058C121.345 92.2028 121.27 92.9698 121.416 93.7097C121.561 94.4496 121.921 95.1293 122.448 95.6627C122.976 96.1962 123.648 96.5595 124.38 96.7067C125.112 96.8539 125.871 96.7783 126.56 96.4896C127.25 96.2009 127.839 95.712 128.254 95.0847C128.668 94.4574 128.89 93.72 128.89 92.9655C128.889 91.9542 128.491 90.9847 127.783 90.2696C127.076 89.5545 126.117 89.1522 125.116 89.1511Z" fill="#535461"/>
  <path d="M110.163 96.4974C111.552 96.4974 112.678 95.3589 112.678 93.9545C112.678 92.55 111.552 91.4115 110.163 91.4115C108.773 91.4115 107.647 92.55 107.647 93.9545C107.647 95.3589 108.773 96.4974 110.163 96.4974Z" fill="#535461"/>
  <path d="M106.318 86.0219C106.621 86.0219 106.867 85.7733 106.867 85.4667C106.867 85.16 106.621 84.9114 106.318 84.9114C106.015 84.9114 105.769 85.16 105.769 85.4667C105.769 85.7733 106.015 86.0219 106.318 86.0219Z" fill="#535461"/>
  <path d="M108.375 86.0219C108.679 86.0219 108.924 85.7733 108.924 85.4667C108.924 85.16 108.679 84.9114 108.375 84.9114C108.072 84.9114 107.826 85.16 107.826 85.4667C107.826 85.7733 108.072 86.0219 108.375 86.0219Z" fill="#535461"/>
  <path d="M108.101 88.6567C108.405 88.6567 108.651 88.4081 108.651 88.1014C108.651 87.7948 108.405 87.5462 108.101 87.5462C107.798 87.5462 107.552 87.7948 107.552 88.1014C107.552 88.4081 107.798 88.6567 108.101 88.6567Z" fill="#535461"/>
  <path d="M110.023 88.7273C110.332 88.7273 110.582 88.4743 110.582 88.1622C110.582 87.8501 110.332 87.5971 110.023 87.5971C109.714 87.5971 109.464 87.8501 109.464 88.1622C109.464 88.4743 109.714 88.7273 110.023 88.7273Z" fill="#535461"/>
  <path d="M111.942 88.6567C112.245 88.6567 112.491 88.4081 112.491 88.1014C112.491 87.7948 112.245 87.5462 111.942 87.5462C111.638 87.5462 111.393 87.7948 111.393 88.1014C111.393 88.4081 111.638 88.6567 111.942 88.6567Z" fill="#535461"/>
  <path d="M107.278 87.4092C107.581 87.4092 107.827 87.1606 107.827 86.854C107.827 86.5473 107.581 86.2988 107.278 86.2988C106.975 86.2988 106.729 86.5473 106.729 86.854C106.729 87.1606 106.975 87.4092 107.278 87.4092Z" fill="#535461"/>
  <path d="M109.045 87.4558C109.353 87.4558 109.604 87.2028 109.604 86.8907C109.604 86.5786 109.353 86.3256 109.045 86.3256C108.736 86.3256 108.486 86.5786 108.486 86.8907C108.486 87.2028 108.736 87.4558 109.045 87.4558Z" fill="#535461"/>
  <path d="M110.861 87.4558C111.17 87.4558 111.42 87.2028 111.42 86.8907C111.42 86.5786 111.17 86.3256 110.861 86.3256C110.553 86.3256 110.302 86.5786 110.302 86.8907C110.302 87.2028 110.553 87.4558 110.861 87.4558Z" fill="#535461"/>
  <path d="M112.765 87.4092C113.068 87.4092 113.314 87.1606 113.314 86.854C113.314 86.5473 113.068 86.2988 112.765 86.2988C112.462 86.2988 112.216 86.5473 112.216 86.854C112.216 87.1606 112.462 87.4092 112.765 87.4092Z" fill="#535461"/>
  <path d="M110.023 86.043C110.332 86.043 110.582 85.79 110.582 85.4779C110.582 85.1659 110.332 84.9128 110.023 84.9128C109.714 84.9128 109.464 85.1659 109.464 85.4779C109.464 85.79 109.714 86.043 110.023 86.043Z" fill="#535461"/>
  <path d="M111.979 86.043C112.288 86.043 112.538 85.79 112.538 85.4779C112.538 85.1659 112.288 84.9128 111.979 84.9128C111.671 84.9128 111.42 85.1659 111.42 85.4779C111.42 85.79 111.671 86.043 111.979 86.043Z" fill="#535461"/>
  <path d="M113.588 86.0219C113.891 86.0219 114.137 85.7733 114.137 85.4667C114.137 85.16 113.891 84.9114 113.588 84.9114C113.285 84.9114 113.039 85.16 113.039 85.4667C113.039 85.7733 113.285 86.0219 113.588 86.0219Z" fill="#535461"/>
  <path d="M89.2693 66.9035C89.0108 66.9038 88.7629 67.0077 88.5801 67.1925C88.3973 67.3773 88.2945 67.6278 88.2942 67.8891V70.856C88.2945 71.1173 88.3973 71.3679 88.5801 71.5527C88.7629 71.7374 89.0108 71.8414 89.2693 71.8417H89.9681C90.2266 71.8414 90.4745 71.7374 90.6572 71.5527C90.84 71.3679 90.9429 71.1173 90.9432 70.856V67.8891C90.9429 67.6278 90.84 67.3773 90.6572 67.1925C90.4745 67.0077 90.2266 66.9038 89.9681 66.9035H89.2693Z" fill="#535461"/>
  <path d="M130.078 66.9035C129.819 66.9037 129.571 67.0077 129.388 67.1925C129.206 67.3773 129.103 67.6278 129.103 67.8891V70.856C129.103 71.1173 129.206 71.3679 129.388 71.5527C129.571 71.7375 129.819 71.8414 130.078 71.8417H130.776C131.035 71.8414 131.283 71.7375 131.466 71.5527C131.648 71.3679 131.751 71.1173 131.752 70.856V67.8891C131.751 67.6278 131.648 67.3773 131.466 67.1925C131.283 67.0077 131.035 66.9037 130.776 66.9035H130.078Z" fill="#535461"/>
  <path d="M141.747 75.4474C143.6 75.4474 145.101 73.9294 145.101 72.0568C145.101 70.1842 143.6 68.6662 141.747 68.6662C139.895 68.6662 138.393 70.1842 138.393 72.0568C138.393 73.9294 139.895 75.4474 141.747 75.4474Z" fill="#E6E6E6"/>
  <path d="M134.62 82.6524C136.472 82.6524 137.974 81.1344 137.974 79.2618C137.974 77.3892 136.472 75.8712 134.62 75.8712C132.767 75.8712 131.266 77.3892 131.266 79.2618C131.266 81.1344 132.767 82.6524 134.62 82.6524Z" fill="#E6E6E6"/>
  <path d="M149.154 82.2286C151.007 82.2286 152.508 80.7106 152.508 78.838C152.508 76.9654 151.007 75.4474 149.154 75.4474C147.302 75.4474 145.8 76.9654 145.8 78.838C145.8 80.7106 147.302 82.2286 149.154 82.2286Z" fill="#E6E6E6"/>
  <path d="M142.306 89.7162C144.159 89.7162 145.66 88.1982 145.66 86.3256C145.66 84.453 144.159 82.935 142.306 82.935C140.454 82.935 138.952 84.453 138.952 86.3256C138.952 88.1982 140.454 89.7162 142.306 89.7162Z" fill="#E6E6E6"/>
  <path d="M95.5932 64.9256C94.8437 64.9265 94.1252 65.2278 93.5953 65.7636C93.0653 66.2993 92.7672 67.0256 92.7664 67.7832V80.4273C92.7672 81.1849 93.0653 81.9113 93.5953 82.447C94.1252 82.9827 94.8437 83.2841 95.5932 83.2849H124.313C125.062 83.2841 125.781 82.9827 126.311 82.447C126.841 81.9113 127.139 81.1849 127.14 80.4273V67.7832C127.139 67.0256 126.841 66.2993 126.311 65.7636C125.781 65.2278 125.062 64.9265 124.313 64.9256H95.5932Z" fill="#535461"/>
  <path d="M144.026 73.6108H139.477L141.673 69.8057L144.026 73.6108ZM139.964 73.3282H143.521L141.681 70.3521L139.964 73.3282Z" fill="#535461"/>
  <path d="M136.506 80.9571H132.733V77.5665H136.506V80.9571ZM133.013 80.6746H136.227V77.849H133.013V80.6746Z" fill="#535461"/>
  <path d="M149.154 80.9571C148.74 80.9571 148.334 80.8328 147.99 80.6C147.645 80.3671 147.376 80.0362 147.217 79.6489C147.059 79.2617 147.017 78.8356 147.098 78.4246C147.179 78.0135 147.379 77.6359 147.672 77.3396C147.965 77.0432 148.339 76.8414 148.745 76.7596C149.152 76.6778 149.573 76.7198 149.956 76.8802C150.339 77.0406 150.667 77.3122 150.897 77.6607C151.128 78.0092 151.251 78.4189 151.251 78.838C151.25 79.3998 151.029 79.9385 150.636 80.3357C150.243 80.733 149.71 80.9565 149.154 80.9571ZM149.154 77.0014C148.795 77.0014 148.444 77.1091 148.145 77.3109C147.846 77.5127 147.613 77.7996 147.476 78.1352C147.338 78.4707 147.302 78.84 147.372 79.1963C147.442 79.5526 147.615 79.8798 147.87 80.1366C148.124 80.3935 148.447 80.5684 148.8 80.6393C149.152 80.7101 149.518 80.6738 149.849 80.5348C150.181 80.3958 150.465 80.1604 150.665 79.8583C150.864 79.5563 150.971 79.2012 150.971 78.838C150.97 78.3511 150.779 77.8842 150.438 77.5399C150.098 77.1956 149.636 77.002 149.154 77.0014Z" fill="#535461"/>
  <path d="M140.798 84.6364L140.6 84.8361L143.745 88.0148L143.942 87.8151L140.798 84.6364Z" fill="#535461"/>
  <path d="M143.817 84.6339L140.603 87.7424L140.796 87.9466L144.01 84.8381L143.817 84.6339Z" fill="#535461"/>
  <path d="M29.7071 32.643C22.0765 34.7696 13.7206 36.3705 10.7266 33.8869C12.3659 31.1282 13.3114 28.4091 13.3916 25.7395C13.4096 24.518 13.899 23.3519 14.7554 22.49C15.3224 21.9363 16.0067 21.5205 16.7564 21.2742C17.5062 21.028 18.3016 20.9577 19.0822 21.0687L21.0625 21.3496C21.1292 21.3591 21.1955 21.3698 21.2615 21.3818C22.212 21.5638 23.0823 22.0422 23.7501 22.7498C24.418 23.4573 24.8498 24.3585 24.9851 25.3269C25.4024 28.2217 26.8054 30.7279 29.7071 32.643Z" fill="#2F2E41"/>
  <path d="M37.0677 60.1071L40.0342 60.7254C40.2608 60.7726 40.4741 60.8703 40.6587 61.0112C40.8433 61.1522 40.9945 61.333 41.1014 61.5404C41.2083 61.7478 41.2681 61.9767 41.2766 62.2104C41.2851 62.4441 41.2419 62.6767 41.1504 62.8915C41.0619 63.099 40.9302 63.2849 40.7644 63.4364C40.5985 63.588 40.4024 63.7017 40.1892 63.7698C39.976 63.8379 39.7509 63.8589 39.529 63.8312C39.3071 63.8036 39.0937 63.728 38.9033 63.6096L34.3656 60.7884L26.6582 42.4725L30.6502 41.3052L37.0677 60.1071Z" fill="#A0616A"/>
  <path d="M15.9355 84.1409L13.6893 84.8012L11.9891 81.2517L13.7181 80.3409L15.9355 84.1409Z" fill="#A0616A"/>
  <path d="M14.7942 99.3491L12.0383 98.6115L12.4697 93.8253L14.8415 93.9729L14.7942 99.3491Z" fill="#A0616A"/>
  <path d="M15.0816 80.8228L12.1627 82.7646L0.936343 69.928C0.692832 69.6496 0.513011 69.3203 0.409675 68.9636C0.306338 68.607 0.282028 68.2317 0.338467 67.8644C0.394907 67.4972 0.530713 67.147 0.736223 66.8389C0.941734 66.5307 1.2119 66.2721 1.5275 66.0815L15.5128 57.6339L17.6548 63.8542L10.3726 70.7623L15.0816 80.8228Z" fill="#2F2E41"/>
  <path d="M17.5398 87.5422C17.5324 87.5518 17.5251 87.5614 17.5177 87.571C17.3312 88.6752 17.0036 89.6823 16.2719 90.4115C16.0549 90.9061 15.6654 91.3025 15.1777 91.5252C14.6899 91.7479 14.1382 91.7812 13.6277 91.6187C13.1463 91.4655 12.7325 91.1479 12.4571 90.7204C12.1817 90.2928 12.0618 89.7818 12.1179 89.2747L12.6633 84.3464C13.9717 84.0424 14.9696 83.2902 15.4747 81.8268L16.7462 82.7024C17.1225 82.9594 17.4431 83.2912 17.6883 83.6776C17.9335 84.064 18.0983 84.4969 18.1726 84.9498C18.2468 85.4027 18.229 85.8662 18.1202 86.3119C18.0114 86.7576 17.8139 87.1762 17.5398 87.5422Z" fill="#2F2E41"/>
  <path d="M18.9235 31.5876C21.4047 31.5876 23.4161 29.5543 23.4161 27.0461C23.4161 24.5379 21.4047 22.5045 18.9235 22.5045C16.4423 22.5045 14.4309 24.5379 14.4309 27.0461C14.4309 29.5543 16.4423 31.5876 18.9235 31.5876Z" fill="#A0616A"/>
  <path d="M22.8141 34.3062L15.7315 40.2358L15.1799 37.795L16.4161 35.89C16.7592 34.0211 16.5377 31.9601 15.9482 29.7739L20.5691 29.7782C20.7686 31.5448 21.449 33.086 22.8141 34.3062Z" fill="#A0616A"/>
  <path d="M24.8082 49.8601L15.2466 52.8044L14.5027 49.3666C12.7109 46.9345 11.9319 44.7146 13.1042 42.9035L12.5143 40.1772C14.2066 38.8303 15.5373 37.4523 16.2681 36.0224L22.1509 33.6987L26.4757 33.9677L27.7527 38.2939L24.8082 49.8601Z" fill="#FFD700"/>
  <path d="M31.601 41.7891C29.5628 41.7672 27.5682 42.3851 25.892 43.5574L26.4757 33.9677C27.0681 34.0476 27.6298 34.2822 28.1054 34.6482C28.581 35.0142 28.9541 35.499 29.1881 36.055L31.601 41.7891Z" fill="#FFD700"/>
  <path d="M15.0517 95.1184L12.0169 94.3634L12.4636 68.296L16.5388 63.7848L15.6265 58.0657L15.0363 51.6588L24.9906 49.1636C28.3552 55.3394 30.3888 60.9543 27.4203 64.4616L15.0517 95.1184Z" fill="#2F2E41"/>
  <path d="M14.3547 103.92C14.341 103.925 14.3274 103.93 14.3138 103.936C13.4325 104.97 12.4643 105.814 11.247 106.11C10.7131 106.489 10.0599 106.655 9.41218 106.578C8.76449 106.5 8.16768 106.185 7.73569 105.691C7.32829 105.225 7.09366 104.63 7.07191 104.009C7.05017 103.388 7.24267 102.778 7.61648 102.284L11.2499 97.4849C12.805 97.9986 14.3145 97.8473 15.7516 96.6402L16.535 98.3622C16.7681 98.8696 16.8965 99.4197 16.9123 99.979C16.9282 100.538 16.8311 101.095 16.6271 101.615C16.423 102.135 16.1163 102.608 15.7256 103.004C15.3349 103.4 14.8684 103.712 14.3547 103.92Z" fill="#2F2E41"/>
  <path d="M3.26844 63.2425L0.604668 65.548C0.383619 65.7393 0.213925 65.984 0.111321 66.2593C0.00871577 66.5345 -0.0234812 66.8315 0.0177138 67.1227C0.0589087 67.414 0.172163 67.6899 0.346978 67.9251C0.521792 68.1603 0.752509 68.347 1.01774 68.468C1.41703 68.6502 1.86985 68.6724 2.28466 68.53C2.69947 68.3876 3.04534 68.0913 3.25234 67.7011L5.17861 64.0691L14.0125 47.7731L10.69 47.1417L3.26844 63.2425Z" fill="#A0616A"/>
  <path d="M14.5447 48.2308C12.8193 47.7043 11.2031 47.3943 9.94958 47.8035C10.2123 44.5166 10.7539 41.5804 12.5143 40.1772L15.0168 40.4745L14.5447 48.2308Z" fill="#FFD700"/>
  <path d="M23.9389 25.993L14.33 25.3953L14.4482 23.4527C17.8025 21.1663 21.0054 21.3655 24.0571 24.0503L23.9389 25.993Z" fill="#2F2E41"/>
</svg>