<svg xmlns="http://www.w3.org/2000/svg" width="178" height="120" viewBox="0 0 178 120" fill="none">
  <path d="M0.490263 100.417C1.27642 94.0404 5.19422 87.7574 11.2231 85.6822C8.8455 92.2457 8.846 99.446 11.2246 106.009C12.151 108.537 13.4423 111.251 12.5709 113.799C12.0287 115.384 10.7023 116.597 9.21972 117.355C7.73701 118.114 6.0915 118.475 4.4666 118.829L4.1468 119.096C1.56729 113.22 -0.295897 106.794 0.490263 100.417Z" fill="#F0F0F0"/>
  <path d="M11.2829 85.8027C7.77199 89.771 5.58984 94.7543 5.04642 100.045C4.90939 101.182 4.95086 102.333 5.1693 103.457C5.41717 104.545 5.94928 105.546 6.71036 106.356C7.40495 107.126 8.20381 107.832 8.70079 108.759C8.9482 109.237 9.09262 109.763 9.12456 110.301C9.1565 110.839 9.07526 111.379 8.88615 111.883C8.44736 113.153 7.58254 114.187 6.70196 115.17C5.72424 116.26 4.69156 117.377 4.27597 118.823C4.22562 118.998 3.95908 118.909 4.00936 118.734C4.73244 116.219 7.15323 114.79 8.30769 112.524C8.84639 111.467 9.0725 110.24 8.56748 109.124C8.12586 108.148 7.30269 107.419 6.59273 106.645C5.83878 105.866 5.28549 104.912 4.9812 103.867C4.70674 102.758 4.62136 101.61 4.72872 100.473C4.92992 97.9071 5.52976 95.3894 6.50628 93.0118C7.60585 90.292 9.15854 87.782 11.0972 85.5903C11.2172 85.4547 11.4022 85.668 11.2829 85.8027Z" fill="white"/>
  <path d="M5.12199 98.3309C4.25441 98.1185 3.48996 97.6018 2.96515 96.8733C2.44033 96.1448 2.18934 95.2518 2.25698 94.3538C2.27128 94.1721 2.55179 94.186 2.53746 94.3679C2.47294 95.204 2.70683 96.0358 3.19691 96.7132C3.68699 97.3906 4.40097 97.869 5.21001 98.062C5.38577 98.1042 5.29674 98.3728 5.12199 98.3309Z" fill="white"/>
  <path d="M6.30722 106.012C7.87417 105.069 9.0309 103.564 9.54676 101.798C9.59773 101.623 9.86429 101.712 9.81337 101.887C9.27315 103.723 8.06624 105.287 6.4335 106.265C6.27782 106.359 6.15238 106.105 6.30722 106.012Z" fill="white"/>
  <path d="M7.86633 90.5603C8.18503 90.713 8.53635 90.7836 8.88875 90.7655C9.24115 90.7475 9.58359 90.6414 9.88531 90.4569C10.0398 90.3618 10.165 90.6154 10.0116 90.7098C9.67729 90.9122 9.29896 91.0288 8.90965 91.0496C8.52035 91.0704 8.13191 90.9948 7.77829 90.8292C7.74366 90.8164 7.71516 90.7908 7.69858 90.7576C7.68199 90.7244 7.67857 90.686 7.68901 90.6503C7.70084 90.6148 7.7261 90.5854 7.7593 90.5685C7.7925 90.5517 7.83097 90.5487 7.86633 90.5603Z" fill="white"/>
  <path d="M29.6001 97.072C29.5053 97.1341 29.4106 97.1963 29.3157 97.2608C28.046 98.103 26.8462 99.0479 25.7282 100.086C25.6405 100.165 25.5528 100.246 25.4675 100.328C22.8005 102.858 20.6222 105.865 19.0436 109.198C18.4167 110.524 17.8907 111.897 17.4702 113.304C16.8896 115.248 16.4133 117.401 15.2641 118.991C15.146 119.158 15.0178 119.318 14.8802 119.469H4.49426C4.47066 119.457 4.44694 119.447 4.42322 119.435L4.00854 119.455C4.02521 119.38 4.04407 119.304 4.06073 119.23C4.07021 119.187 4.08202 119.144 4.0915 119.101C4.09856 119.072 4.10573 119.043 4.11048 119.017C4.11279 119.008 4.11522 118.998 4.11754 118.991C4.12228 118.965 4.12945 118.941 4.1342 118.917C4.23845 118.489 4.34586 118.061 4.45643 117.633C4.45643 117.631 4.45643 117.631 4.45874 117.628C5.3095 114.37 6.43737 111.155 8.01312 108.215C8.06056 108.127 8.10788 108.036 8.16007 107.948C8.87763 106.626 9.70105 105.367 10.6221 104.181C11.1285 103.533 11.6671 102.911 12.2358 102.319C13.7082 100.79 15.4098 99.504 17.2782 98.5085C21.0033 96.5246 25.3159 95.7645 29.2968 96.9763C29.3986 97.0074 29.4983 97.0385 29.6001 97.072Z" fill="#F0F0F0"/>
  <path d="M29.5767 97.2049C24.4049 98.2411 19.6883 100.895 16.0967 104.789C15.3088 105.613 14.6546 106.558 14.1582 107.588C13.7069 108.607 13.5343 109.729 13.6584 110.838C13.7535 111.875 13.9698 112.924 13.8135 113.966C13.7257 114.498 13.5273 115.005 13.2314 115.455C12.9356 115.904 12.5489 116.285 12.0968 116.573C10.9887 117.32 9.68063 117.621 8.39127 117.871C6.95968 118.147 5.46835 118.412 4.27354 119.314C4.12878 119.424 3.96912 119.191 4.11367 119.082C6.19243 117.512 8.97812 117.841 11.2522 116.734C12.3133 116.217 13.2264 115.374 13.4893 114.176C13.7192 113.129 13.4971 112.047 13.3917 110.998C13.255 109.918 13.3824 108.82 13.7631 107.801C14.2058 106.749 14.8228 105.781 15.5877 104.937C17.2796 103.011 19.2613 101.365 21.4601 100.06C23.9613 98.5561 26.6992 97.495 29.5552 96.9225C29.7319 96.8871 29.7523 97.1698 29.5767 97.2049Z" fill="white"/>
  <path d="M17.18 103.466C16.6141 102.77 16.3121 101.893 16.3279 100.993C16.3437 100.092 16.6763 99.2266 17.2663 98.5507C17.3861 98.4144 17.6018 98.5958 17.4818 98.7323C16.9313 99.3607 16.6215 100.167 16.6085 101.005C16.5955 101.844 16.8801 102.66 17.4108 103.305C17.526 103.445 17.2945 103.606 17.18 103.466Z" fill="white"/>
  <path d="M13.5416 110.319C15.356 110.517 17.1778 110.018 18.6436 108.922C18.7888 108.813 18.9485 109.046 18.8035 109.155C17.276 110.293 15.3791 110.808 13.4914 110.598C13.3115 110.578 13.3627 110.299 13.5416 110.319Z" fill="white"/>
  <path d="M24.0092 98.9285C24.1725 99.244 24.4109 99.5137 24.703 99.7133C24.9952 99.9129 25.3319 100.036 25.683 100.072C25.863 100.09 25.8117 100.369 25.6328 100.351C25.2451 100.309 24.8734 100.173 24.5502 99.9529C24.2269 99.733 23.9619 99.4367 23.7784 99.0898C23.7584 99.0585 23.7509 99.0208 23.7575 98.9842C23.7641 98.9476 23.7842 98.9149 23.8139 98.8927C23.8445 98.8715 23.8822 98.8634 23.9188 98.8701C23.9554 98.8768 23.9879 98.8978 24.0092 98.9285Z" fill="white"/>
  <path d="M85.6032 116.577L88.3567 115.643L86.0937 104.485L82.0301 105.864L85.6032 116.577Z" fill="#FFB6B6"/>
  <path d="M84.5984 115.909L85.3734 115.646L87.9852 113.378L90.0209 114.068C90.9374 113.757 91.939 113.826 92.805 114.26C93.6711 114.694 94.3308 115.457 94.6392 116.381L94.677 116.495L85.7988 119.508L84.5984 115.909Z" fill="#2F2E41"/>
  <path d="M72.2449 114.741L75.072 115.415L78.9958 104.736L74.8235 103.741L72.2449 114.741Z" fill="#FFB6B6"/>
  <path d="M71.742 113.638L72.5377 113.827L75.9432 113.294L77.3096 114.966C78.2505 115.19 79.0648 115.783 79.5728 116.613C80.0808 117.443 80.2412 118.442 80.0187 119.391L79.9914 119.508L70.8757 117.333L71.742 113.638Z" fill="#2F2E41"/>
  <path d="M48.1709 113.183H53.1582V104.846H48.1709V113.183Z" fill="#CACACA"/>
  <path d="M52.9083 109.258L52.2682 110.209L64.2377 118.402L64.8779 117.451L52.9083 109.258Z" fill="#CACACA"/>
  <path d="M48.4208 109.258L36.4513 117.451L37.0914 118.402L49.0609 110.209L48.4208 109.258Z" fill="#CACACA"/>
  <path d="M64.5578 119.508C65.4235 119.508 66.1252 118.8 66.1252 117.927C66.1252 117.053 65.4235 116.345 64.5578 116.345C63.6921 116.345 62.9904 117.053 62.9904 117.927C62.9904 118.8 63.6921 119.508 64.5578 119.508Z" fill="#CACACA"/>
  <path d="M50.5933 119.508C51.459 119.508 52.1608 118.8 52.1608 117.927C52.1608 117.053 51.459 116.345 50.5933 116.345C49.7276 116.345 49.0259 117.053 49.0259 117.927C49.0259 118.8 49.7276 119.508 50.5933 119.508Z" fill="#CACACA"/>
  <path d="M36.7714 119.508C37.637 119.508 38.3388 118.8 38.3388 117.927C38.3388 117.053 37.637 116.345 36.7714 116.345C35.9057 116.345 35.2039 117.053 35.2039 117.927C35.2039 118.8 35.9057 119.508 36.7714 119.508Z" fill="#CACACA"/>
  <path d="M51.1633 109.733H50.0233V117.927H51.1633V109.733Z" fill="#CACACA"/>
  <path d="M49.5959 108.583H51.7333V97.5156H49.5959V108.583Z" fill="#CACACA"/>
  <path d="M39.7981 99.2405V96.6532C39.7987 96.1768 39.9865 95.7201 40.3204 95.3833C40.6543 95.0465 41.1071 94.857 41.5793 94.8564H58.2352C58.7074 94.857 59.1602 95.0465 59.4941 95.3833C59.828 95.7201 60.0159 96.1768 60.0164 96.6532V99.2405C60.0159 99.7168 59.828 100.174 59.4941 100.51C59.1602 100.847 58.7074 101.037 58.2352 101.037H41.5793C41.1071 101.037 40.6543 100.847 40.3204 100.51C39.9865 100.174 39.7987 99.7168 39.7981 99.2405Z" fill="#3F3D56"/>
  <path d="M29.7474 94.4691L18.9942 75.8185C18.6445 75.2104 18.5482 74.4871 18.7264 73.8074C18.9047 73.1278 19.3429 72.5472 19.945 72.193L20.5735 71.8243C21.1764 71.4715 21.8934 71.3744 22.5672 71.5542C23.241 71.734 23.8165 72.176 24.1676 72.7834L34.9208 91.434C35.2706 92.0421 35.3669 92.7654 35.1886 93.445C35.0104 94.1247 34.5721 94.7053 33.97 95.0595L33.3415 95.4282C32.7387 95.781 32.0217 95.8781 31.3479 95.6983C30.6741 95.5185 30.0985 95.0764 29.7474 94.4691Z" fill="#3F3D56"/>
  <path d="M39.8682 99.1515C37.5438 99.1489 35.3153 98.2162 33.6716 96.5582C32.028 94.9002 31.1034 92.6523 31.1008 90.3075H32.0486C32.0488 91.7524 32.4423 93.1695 33.1864 94.4042C33.9304 95.639 34.9963 96.6438 36.2678 97.3092C37.5393 97.9746 38.9675 98.2749 40.3967 98.1774C41.8258 98.08 43.201 97.5884 44.3721 96.7565L44.9187 97.5375C43.4422 98.5914 41.677 99.1555 39.8682 99.1515Z" fill="#3F3D56"/>
  <path d="M49.8205 85.7659C49.8205 85.7659 76.3599 77.639 80.3882 87.6781C84.4165 97.7173 88.2078 109.191 88.2078 109.191L82.9947 110.864L72.8055 93.6538C72.8055 93.6538 48.2458 99.8686 43.1092 92.5782L49.8205 85.7659Z" fill="#2F2E41"/>
  <path d="M30.6268 65.4486L24.4659 64.9705L23.2811 72.6194C23.2811 72.6194 30.8638 92.4587 43.8965 94.3709L56.2184 83.1366L42.5718 78.0079L30.6268 65.4486Z" fill="#FFD700"/>
  <path d="M29.9066 60.9015C33.8871 58.897 35.503 54.017 33.5158 50.0018C31.5286 45.9865 26.6909 44.3565 22.7104 46.3611C18.7299 48.3656 17.114 53.2456 19.1012 57.2608C21.0884 61.2761 25.9261 62.906 29.9066 60.9015Z" fill="#FFB8B8"/>
  <path d="M28.5436 62.0489C28.1717 62.3627 27.6113 62.528 26.8449 62.552C24.5893 62.6222 22.3732 61.9441 20.5365 60.6215C18.6997 59.299 17.3439 57.4051 16.6768 55.2305C16.3412 54.1361 16.0569 52.5035 16.6086 50.9408C17.0053 49.8176 17.7843 48.8757 18.4832 48.0809C19.0883 47.3927 19.7197 46.7185 20.3602 46.0775C21.1253 45.3112 22.0373 44.4602 23.1813 44.0605C24.0196 43.7678 24.918 43.7416 25.7869 43.7164C26.0896 43.7075 26.4028 43.6986 26.7071 43.678C27.4638 43.6521 28.2065 43.4652 28.8867 43.1297C29.0264 43.0542 29.1804 43.0098 29.3385 42.9996C29.4966 42.9893 29.6551 43.0134 29.8031 43.0702C29.9539 43.1277 30.0906 43.2173 30.2041 43.3327C30.3176 43.4482 30.4052 43.5868 30.4611 43.7394C30.5709 44.0392 30.6699 44.3096 31.006 44.4095C31.1272 44.4423 31.2545 44.4447 31.3768 44.4165C31.4991 44.3882 31.6126 44.3301 31.7075 44.2473C31.7576 44.2037 31.8177 44.1733 31.8824 44.159C31.9471 44.1447 32.0143 44.147 32.0779 44.1655C32.1416 44.1834 32.2 44.2167 32.248 44.2625C32.296 44.3084 32.3322 44.3654 32.3533 44.4286L32.3809 44.5109C32.4498 44.463 32.5293 44.4326 32.6125 44.4225C32.6956 44.4125 32.78 44.4229 32.8582 44.453C32.9717 44.4941 33.0678 44.5731 33.1307 44.6768C33.1936 44.7806 33.2196 44.9028 33.2043 45.0234C33.0918 46.0181 32.7053 46.9611 32.0884 47.7453C31.6619 48.2767 31.136 48.7183 30.5406 49.045L30.4452 49.0981L30.3793 48.9979C27.7022 49.9956 26.8847 52.8249 27.0169 55.1593L26.7828 55.1911C26.7646 55.1152 26.7315 55.0438 26.6853 54.9813C26.6391 54.9187 26.5808 54.8662 26.5139 54.8269C26.4366 54.7774 26.3503 54.7437 26.26 54.7279C26.1697 54.712 26.0772 54.7143 25.9878 54.7346C25.8179 54.7886 25.6675 54.8922 25.5559 55.0323C25.4442 55.1724 25.3761 55.3427 25.3603 55.5217C25.3481 55.7089 25.3747 55.8966 25.4384 56.0728C25.5021 56.249 25.6015 56.4099 25.7302 56.5452C26.0103 56.826 26.3339 57.0587 26.6882 57.2345C26.8488 57.326 27.0151 57.4207 27.1725 57.5246C28.0635 58.1178 28.7064 59.0216 28.9782 60.063C29.1004 60.5396 29.1706 61.2196 28.8108 61.7522C28.7358 61.8631 28.6458 61.9629 28.5436 62.0489Z" fill="#2F2E41"/>
  <path d="M81.4365 90.7565C80.1966 101.514 77.5447 111.581 77.5447 111.581L72.5685 110.864L73.7019 90.577" fill="#2F2E41"/>
  <path d="M32.369 54.9359C32.131 54.9357 31.8993 54.8588 31.7077 54.7163C31.5161 54.5739 31.3747 54.3733 31.3041 54.144C28.0709 52.4443 29.7802 51.2456 30.0029 49.8963C29.9597 49.7553 29.9445 49.6072 29.958 49.4603C29.9716 49.3134 30.0137 49.1707 30.082 49.0402C30.1503 48.9098 30.2433 48.7942 30.3559 48.7C30.4685 48.6058 30.5983 48.5349 30.7381 48.4914L34.0434 47.461C34.3257 47.3733 34.6309 47.4021 34.892 47.5412C35.1532 47.6802 35.349 47.9181 35.4364 48.2027L36.7377 52.4504C36.8245 52.7351 36.7959 53.0428 36.658 53.3062C36.5202 53.5696 36.2844 53.767 36.0025 53.8553L32.6971 54.8858C32.5908 54.919 32.4802 54.9359 32.369 54.9359Z" fill="#3F3D56"/>
  <path d="M34.5289 47.3136C34.7695 47.3119 35.0043 47.3884 35.1984 47.5319C35.3925 47.6753 35.5356 47.878 35.6066 48.1099L36.9775 52.453C37.0702 52.744 37.0469 53.0599 36.9125 53.3338C36.8479 53.4681 36.7574 53.5881 36.6463 53.6868C36.5352 53.7854 36.4058 53.8607 36.2655 53.9083L35.5223 54.1598L33.4586 47.622L34.2017 47.3705C34.3072 47.3347 34.4175 47.3155 34.5289 47.3136Z" fill="#FFD700"/>
  <path d="M17.4427 57.3554C17.2888 57.3554 17.1389 57.3056 17.015 57.2135C16.8912 57.1214 16.7998 56.9917 16.7542 56.8434L16.4098 55.7195C16.3819 55.6283 16.3721 55.5325 16.3809 55.4375C16.3896 55.3426 16.4169 55.2503 16.461 55.1659C16.5052 55.0815 16.5654 55.0068 16.6382 54.9459C16.711 54.885 16.795 54.8391 16.8853 54.811L31.8096 50.1587C31.8999 50.1305 31.9949 50.1206 32.0891 50.1294C32.1833 50.1383 32.2748 50.1658 32.3585 50.2103C32.4421 50.2548 32.5163 50.3156 32.5766 50.389C32.637 50.4625 32.6824 50.5472 32.7104 50.6384L33.0546 51.7622C33.1108 51.9463 33.0923 52.1453 33.0031 52.3156C32.914 52.4859 32.7616 52.6136 32.5792 52.6707L17.6549 57.323C17.5862 57.3445 17.5146 57.3554 17.4427 57.3554Z" fill="#3F3D56"/>
  <path d="M58.0412 92.5421H55.8174C55.5319 92.542 55.2572 92.4317 55.0497 92.2338C54.8423 92.0359 54.7178 91.7654 54.7019 91.4778L54.3246 84.7195C54.316 84.5664 54.3385 84.4132 54.3907 84.2691C54.4429 84.1251 54.5237 83.9933 54.6281 83.8819C54.7325 83.7705 54.8584 83.6817 54.9981 83.6211C55.1377 83.5604 55.2881 83.5292 55.4402 83.5293H58.4184C58.5704 83.5292 58.7209 83.5605 58.8605 83.6211C59.0002 83.6817 59.1261 83.7705 59.2305 83.8819C59.3349 83.9934 59.4157 84.1251 59.4679 84.2692C59.5201 84.4132 59.5425 84.5665 59.5339 84.7196L59.1567 91.4778C59.1407 91.7654 59.0163 92.0359 58.8088 92.2338C58.6014 92.4317 58.3267 92.542 58.0412 92.5421Z" fill="#E4E4E4"/>
  <path d="M59.4508 85.0941L59.4224 85.5949H54.4363L54.4076 85.0941H59.4508Z" fill="#CACACA"/>
  <path d="M59.3875 86.2206L59.3603 86.7214H54.4983L54.4709 86.2206H59.3875Z" fill="#CACACA"/>
  <path d="M59.3257 87.3472L59.297 87.8479H54.5616L54.5329 87.3472H59.3257Z" fill="#CACACA"/>
  <path d="M59.2621 88.474L59.2337 88.9745H54.6249L54.5962 88.474H59.2621Z" fill="#CACACA"/>
  <path d="M59.1989 89.6005L59.1716 90.1013H54.6869L54.6597 89.6005H59.1989Z" fill="#CACACA"/>
  <path d="M59.1368 90.7271L59.1084 91.2278H54.7502L54.7216 90.7271H59.1368Z" fill="#CACACA"/>
  <path d="M56.9913 83.9674C57.4368 83.9674 57.7979 83.8834 57.7979 83.7797C57.7979 83.676 57.4368 83.5919 56.9913 83.5919C56.5459 83.5919 56.1847 83.676 56.1847 83.7797C56.1847 83.8834 56.5459 83.9674 56.9913 83.9674Z" fill="#CACACA"/>
  <path d="M57.0524 83.9675C57.028 83.9675 57.0038 83.9626 56.9812 83.9532C56.9586 83.9437 56.9381 83.9299 56.9208 83.9125C56.9035 83.895 56.8898 83.8743 56.8804 83.8515C56.8711 83.8288 56.8663 83.8043 56.8663 83.7797V80.2234H55.6883C55.6391 80.2232 55.5919 80.2034 55.5572 80.1682C55.5224 80.133 55.5029 80.0853 55.5029 80.0357C55.5029 79.986 55.5224 79.9383 55.5572 79.9031C55.5919 79.8679 55.6391 79.8481 55.6883 79.8479H57.0524C57.0769 79.8479 57.1011 79.8527 57.1237 79.8622C57.1462 79.8716 57.1668 79.8855 57.184 79.9029C57.2013 79.9203 57.215 79.941 57.2244 79.9638C57.2337 79.9866 57.2386 80.011 57.2386 80.0357V83.7797C57.2386 83.8043 57.2337 83.8288 57.2244 83.8515C57.215 83.8743 57.2013 83.895 57.184 83.9125C57.1668 83.9299 57.1462 83.9437 57.1237 83.9532C57.1011 83.9626 57.0769 83.9675 57.0524 83.9675Z" fill="#CACACA"/>
  <path d="M56.4157 87.0488C56.1463 86.826 55.8318 86.6655 55.4943 86.5786C55.1568 86.4916 54.8045 86.4804 54.4622 86.5457C54.1199 86.611 53.796 86.7511 53.5132 86.9564C53.2304 87.1616 52.9957 87.4269 52.8256 87.7335L44.4891 86.2355L46.2298 90.3121L53.8793 91.1096C54.4089 91.3638 55.0126 91.4132 55.5758 91.2484C56.1391 91.0837 56.6229 90.7162 56.9356 90.2157C57.2482 89.7151 57.368 89.1163 57.2722 88.5326C57.1763 87.9489 56.8716 87.421 56.4157 87.0488Z" fill="#FFB6B6"/>
  <path d="M50.9953 91.1554L35.7169 89.9438L35.6864 89.8855C35.628 89.7742 29.8392 78.7124 28.9873 76.1744C28.4573 74.6462 28.4614 72.9811 28.9989 71.4557L29.0144 71.4188L29.0488 71.3987C29.753 70.9919 30.5736 70.8394 31.3752 70.9662C32.1769 71.093 32.9118 71.4916 33.4588 72.0963C36.0841 75.0298 37.9976 78.5388 39.0483 82.3461L39.6434 84.5125L50.5744 86.9823L50.9953 91.1554Z" fill="#FFD700"/>
  <path d="M109.714 10.2958L177.763 0.276489V66.0041L109.714 55.985V10.2958Z" fill="#F2F2F2"/>
  <path d="M178 66.2804L109.477 56.1917V10.0891L178 0V66.2804ZM109.95 55.7783L177.526 65.7276V0.552989L109.95 10.5025V55.7783Z" fill="#3F3D56"/>
  <path d="M141.881 23.4139C141.78 23.1815 141.674 22.9456 141.561 22.7186C141.452 22.497 141.33 22.2824 141.195 22.076C141.073 21.8874 140.929 21.714 140.767 21.5595C140.62 21.4196 140.447 21.3113 140.258 21.2411C140.052 21.1692 139.83 21.1543 139.617 21.1981C139.393 21.2457 139.18 21.3313 138.985 21.4512C138.771 21.5818 138.568 21.7311 138.379 21.8975C138.182 22.0667 137.992 22.2515 137.81 22.4346C137.269 22.9802 136.736 23.5331 136.211 24.0932C135.689 24.65 135.176 25.2138 134.669 25.7846C134.167 26.352 133.672 26.9263 133.184 27.5075C132.7 28.0854 132.223 28.6701 131.754 29.2615L131.756 29.2964L132.855 29.1587L133.969 29.0193L135.096 28.8783L136.237 28.7349C136.514 28.7002 136.795 28.6644 137.075 28.6178C137.358 28.5726 137.639 28.5119 137.915 28.4359C138.198 28.3575 138.473 28.2544 138.738 28.1275C139.018 27.9929 139.281 27.8272 139.524 27.6334C139.62 27.5565 139.716 27.4735 139.812 27.3913C139.908 27.3091 140.005 27.2278 140.104 27.1549C140.199 27.083 140.3 27.0204 140.407 26.968C140.507 26.9183 140.615 26.8867 140.727 26.8745C140.863 26.8625 140.999 26.8835 141.125 26.9357C141.26 26.9921 141.385 27.0694 141.496 27.1647C141.619 27.2693 141.733 27.3848 141.835 27.5099C141.944 27.641 142.045 27.7775 142.14 27.9191C142.716 28.8054 143.205 29.747 143.598 30.73C144.024 31.7488 144.403 32.8227 144.795 33.8878C145.188 34.9575 145.591 36.0183 146.061 37.0079C146.504 37.9802 147.069 38.8907 147.744 39.7165C147.321 38.2685 146.881 36.8389 146.422 35.4277C145.965 34.0236 145.491 32.6393 145 31.2748C144.51 29.9178 144.005 28.582 143.484 27.2675C142.965 25.9608 142.43 24.6763 141.881 23.4139H141.881Z" fill="white"/>
  <path d="M127.05 23.8023L127.034 23.8219L127.017 23.8415L127 23.8609L126.983 23.8802C126.942 23.9145 126.901 23.9492 126.86 23.9845C126.819 24.0197 126.778 24.0551 126.738 24.0908C126.697 24.1267 126.657 24.1627 126.616 24.1989L126.496 24.3079C126.42 24.3762 126.345 24.4451 126.271 24.5146C126.196 24.5841 126.122 24.6542 126.048 24.725C125.974 24.7957 125.9 24.8674 125.827 24.9401C125.754 25.0128 125.681 25.0853 125.608 25.1579C125.463 25.3033 125.32 25.4511 125.179 25.6012C125.037 25.7514 124.897 25.9033 124.758 26.0571C124.62 26.2113 124.483 26.368 124.347 26.527C124.211 26.686 124.077 26.8471 123.944 27.0103C123.875 27.0949 123.807 27.1802 123.739 27.2661C123.671 27.352 123.603 27.4383 123.536 27.5252C123.469 27.612 123.402 27.6997 123.336 27.7881C123.27 27.8766 123.204 27.9648 123.138 28.0527L123.124 28.0288L123.11 28.0049L123.096 27.981L123.084 27.9538L123.08 27.9475L123.077 27.9413L123.074 27.9351L123.071 27.9287C122.931 27.6546 122.821 27.3661 122.743 27.0682C122.66 26.7552 122.605 26.4351 122.581 26.1121C122.555 25.7808 122.557 25.448 122.589 25.1172C122.62 24.7856 122.681 24.4575 122.771 24.1372C122.856 23.8342 122.972 23.5409 123.116 23.2619C123.246 23.012 123.405 22.7792 123.59 22.5687C123.756 22.3808 123.949 22.2202 124.164 22.093C124.362 21.976 124.581 21.9001 124.809 21.8698C125.029 21.8419 125.253 21.8623 125.465 21.9298C125.686 22.002 125.892 22.1155 126.072 22.2644C126.274 22.4314 126.45 22.6279 126.595 22.8474C126.761 23.099 126.897 23.3698 126.999 23.6541L127.001 23.6591L127.003 23.6644L127.005 23.6697L127.006 23.6747L127.018 23.7065L127.029 23.7385L127.04 23.7708L127.05 23.8023Z" fill="#FFD700"/>
  <path d="M127.287 45.4081C127.538 45.4364 127.789 45.4713 128.041 45.5127C128.293 45.5542 128.546 45.602 128.8 45.6562C129.054 45.711 129.308 45.7724 129.563 45.8405C129.818 45.9085 130.074 45.9834 130.33 46.0651C131.122 46.3195 131.896 46.626 132.647 46.9825C133.442 47.3595 134.214 47.7845 134.958 48.2554C135.75 48.7561 136.514 49.3007 137.246 49.8867C138.026 50.5115 138.774 51.176 139.487 51.8776C139.733 52.1184 139.976 52.3654 140.218 52.6186C140.46 52.8718 140.7 53.1317 140.938 53.3983C141.177 53.6649 141.413 53.9375 141.647 54.2162C141.881 54.4949 142.113 54.7802 142.343 55.0719L142.428 55.1795L142.512 55.2878L142.596 55.3965L142.68 55.5058C142.686 55.5154 142.695 55.5233 142.705 55.5288C142.715 55.5344 142.726 55.5374 142.737 55.5376C142.747 55.5367 142.756 55.5337 142.765 55.5288C142.773 55.5239 142.78 55.5172 142.786 55.5091C142.8 55.4908 142.808 55.4686 142.808 55.4456C142.809 55.4188 142.801 55.3926 142.785 55.3715C142.556 55.0722 142.324 54.7788 142.09 54.4914C141.855 54.2039 141.619 53.9233 141.381 53.6495C141.144 53.3754 140.904 53.1073 140.661 52.8452C140.418 52.583 140.175 52.3281 139.93 52.0803C139.686 51.8323 139.439 51.5906 139.191 51.3551C138.942 51.1195 138.693 50.8909 138.443 50.6691C138.193 50.4472 137.941 50.2321 137.688 50.0237C137.435 49.8153 137.181 49.6131 136.927 49.4173C136.672 49.2216 136.416 49.0324 136.159 48.8496C135.903 48.6668 135.645 48.4906 135.388 48.3211C135.131 48.1522 134.872 47.9897 134.613 47.8337C134.354 47.6777 134.095 47.5283 133.836 47.3855C133.578 47.2436 133.319 47.1081 133.059 46.9792C132.8 46.8503 132.541 46.7284 132.283 46.6135C132.024 46.4983 131.766 46.3897 131.506 46.2879C131.246 46.1861 130.988 46.091 130.731 46.0025C130.473 45.9144 130.216 45.8329 129.96 45.758C129.703 45.6831 129.447 45.6151 129.192 45.5539C128.937 45.4927 128.682 45.438 128.428 45.3899C128.174 45.3418 127.92 45.3003 127.668 45.2654L127.574 45.2525L127.479 45.2403L127.382 45.2288L127.287 45.218C127.279 45.2178 127.27 45.2202 127.263 45.2247C127.256 45.2297 127.249 45.2363 127.244 45.2441C127.239 45.253 127.235 45.2628 127.232 45.273C127.229 45.2848 127.227 45.2971 127.227 45.3093C127.227 45.3214 127.229 45.3335 127.232 45.3452C127.235 45.356 127.239 45.3664 127.245 45.376C127.249 45.3845 127.256 45.392 127.263 45.398C127.27 45.4035 127.278 45.407 127.287 45.4081Z" fill="white"/>
  <path d="M127.05 39.3896C127.499 39.4541 127.95 39.5198 128.403 39.5868C128.856 39.6537 129.314 39.7246 129.777 39.7995C130.24 39.8746 130.704 39.9542 131.171 40.0385C131.641 40.1246 132.112 40.2176 132.585 40.3177C133.062 40.4133 133.541 40.5219 134.021 40.6435C134.503 40.7651 134.987 40.8993 135.473 41.046C135.961 41.1936 136.449 41.3539 136.939 41.527C137.432 41.7024 137.925 41.8903 138.419 42.0906C138.858 42.2692 139.297 42.464 139.734 42.675C140.172 42.886 140.609 43.1135 141.048 43.3574C141.486 43.6028 141.923 43.8644 142.357 44.1422C142.792 44.4199 143.226 44.7151 143.661 45.0278C144.067 45.3211 144.468 45.6319 144.865 45.96C145.262 46.2881 145.655 46.6347 146.045 46.9997C146.434 47.3648 146.818 47.7467 147.196 48.1454C147.574 48.5441 147.946 48.9606 148.314 49.395C148.677 49.8238 149.03 50.2711 149.371 50.7367C149.712 51.2023 150.044 51.6867 150.366 52.19C150.687 52.6932 150.995 53.2127 151.292 53.7484C151.588 54.2842 151.871 54.8364 152.142 55.4052C152.176 55.4769 152.209 55.5486 152.242 55.6203C152.275 55.692 152.308 55.7644 152.341 55.8375C152.374 55.9102 152.406 55.9831 152.438 56.0563C152.471 56.1294 152.502 56.2028 152.533 56.2764C152.538 56.2889 152.545 56.3004 152.554 56.3101C152.563 56.3198 152.574 56.3274 152.586 56.3326C152.596 56.3359 152.606 56.3368 152.616 56.3354C152.626 56.3339 152.636 56.3301 152.644 56.3242C152.663 56.311 152.677 56.2912 152.683 56.2685C152.689 56.2397 152.686 56.2095 152.674 56.1827C152.418 55.5957 152.147 55.0229 151.862 54.4646C151.576 53.9062 151.278 53.3662 150.966 52.8444C150.656 52.3213 150.333 51.815 149.998 51.3254C149.662 50.8359 149.316 50.3665 148.96 49.9173C148.601 49.4651 148.235 49.0292 147.861 48.6098C147.488 48.1904 147.109 47.7896 146.725 47.4073C146.342 47.0248 145.952 46.6597 145.556 46.3118C145.161 45.964 144.762 45.6351 144.36 45.3253C143.941 45.0025 143.519 44.6955 143.093 44.4044C142.668 44.1132 142.242 43.8395 141.817 43.5831C141.39 43.3264 140.962 43.0857 140.533 42.861C140.104 42.6363 139.675 42.4286 139.245 42.2378C138.749 42.0192 138.252 41.8146 137.757 41.624C137.264 41.4344 136.772 41.2591 136.28 41.0981C135.79 40.9364 135.302 40.7888 134.816 40.6552C134.332 40.5223 133.849 40.4028 133.368 40.2967C132.885 40.1851 132.405 40.0826 131.926 39.9891C131.451 39.8954 130.977 39.8084 130.505 39.7283C130.036 39.6486 129.569 39.5731 129.104 39.5017C128.643 39.4311 128.184 39.363 127.726 39.2975L127.556 39.2736L127.387 39.2497L127.218 39.2246L127.05 39.2007C127.041 39.1995 127.032 39.2011 127.024 39.2054C127.016 39.2097 127.01 39.2164 127.006 39.2246C126.995 39.2438 126.99 39.2653 126.991 39.287C126.991 39.3104 126.996 39.3334 127.006 39.3544C127.01 39.3635 127.016 39.3714 127.024 39.3775C127.032 39.3836 127.041 39.3877 127.05 39.3896Z" fill="white"/>
  <path d="M156.989 54.1761C156.916 54.0486 156.844 53.9205 156.772 53.7919C156.7 53.6633 156.627 53.5353 156.556 53.4078C156.484 53.2803 156.412 53.1524 156.341 53.0239C156.269 52.8955 156.198 52.7675 156.127 52.6401C155.55 51.6 154.985 50.5583 154.432 49.515C153.881 48.4775 153.342 47.4379 152.815 46.3964C152.29 45.3606 151.777 44.3224 151.275 43.2816C150.775 42.2459 150.285 41.208 149.806 40.1681C149.482 39.4644 149.163 38.7598 148.849 38.0543C148.535 37.3489 148.227 36.6447 147.925 35.9418C147.623 35.2388 147.326 34.5347 147.033 33.8295C146.741 33.1244 146.454 32.4202 146.173 31.717C146.039 31.3824 145.906 31.0477 145.775 30.7131C145.643 30.3784 145.512 30.0438 145.383 29.7092C145.254 29.3745 145.126 29.0399 144.999 28.7053C144.872 28.3706 144.746 28.036 144.621 27.7013C144.525 27.4419 144.429 27.1823 144.333 26.9226C144.238 26.6628 144.143 26.4032 144.049 26.1436C143.955 25.884 143.862 25.6243 143.769 25.3646C143.676 25.1049 143.585 24.8451 143.493 24.5854C143.467 24.5111 143.441 24.4369 143.416 24.3626C143.39 24.2883 143.364 24.214 143.339 24.1396C143.313 24.0652 143.288 23.9908 143.263 23.9163L143.187 23.6928C143.128 23.5176 143.069 23.3423 143.01 23.167C142.951 22.9917 142.892 22.8169 142.833 22.6426C142.773 22.4682 142.714 22.2944 142.653 22.1212C142.593 21.948 142.532 21.7758 142.47 21.6045C142.399 21.4094 142.325 21.2122 142.245 21.0184C142.165 20.8245 142.079 20.6345 141.987 20.4531C141.897 20.2761 141.797 20.1053 141.685 19.9415C141.581 19.7881 141.462 19.6456 141.33 19.5161C141.273 19.4587 141.212 19.4062 141.147 19.359C141.085 19.3142 141.019 19.2752 140.95 19.2424C140.884 19.2108 140.815 19.1857 140.743 19.1676C140.673 19.1497 140.601 19.1391 140.529 19.1358C140.426 19.1346 140.324 19.1491 140.225 19.1788C140.124 19.2095 140.026 19.2508 139.933 19.3021C139.836 19.3558 139.742 19.4157 139.652 19.4814C139.56 19.5476 139.47 19.6193 139.382 19.692C138.735 20.2282 138.103 20.7869 137.486 21.3681C136.874 21.9451 136.278 22.5436 135.697 23.1636C135.12 23.7794 134.558 24.4156 134.013 25.0723C133.47 25.7247 132.944 26.3966 132.433 27.0882C131.925 27.7734 131.433 28.4751 130.957 29.1931C130.484 29.9076 130.027 30.6383 129.587 31.385C129.149 32.1277 128.728 32.8858 128.322 33.6593C127.92 34.4279 127.535 35.2115 127.165 36.0102C127.162 36.0198 127.156 36.0285 127.149 36.0355C127.141 36.0426 127.132 36.0477 127.123 36.0506C127.115 36.0519 127.106 36.0513 127.098 36.0487C127.09 36.0461 127.083 36.0417 127.077 36.0358C127.063 36.0219 127.053 36.0038 127.049 35.9839C127.044 35.9596 127.048 35.9345 127.058 35.9122C127.103 35.8151 127.148 35.7183 127.194 35.6215C127.239 35.5248 127.285 35.4286 127.331 35.333C127.377 35.2374 127.423 35.1413 127.469 35.0448C127.515 34.9482 127.562 34.8526 127.609 34.7579C128.195 33.5669 128.817 32.4106 129.477 31.2889C130.141 30.1596 130.842 29.0675 131.58 28.0126C132.324 26.9497 133.104 25.9267 133.92 24.9437C134.744 23.9527 135.605 23.0045 136.501 22.0992C136.653 21.9464 136.806 21.795 136.959 21.6451C137.113 21.4951 137.268 21.3462 137.424 21.1983C137.58 21.0506 137.737 20.9043 137.895 20.7593C138.053 20.6142 138.213 20.4704 138.373 20.3278C138.454 20.2559 138.535 20.1842 138.616 20.1127C138.698 20.0411 138.779 19.9701 138.861 19.8995C138.943 19.8287 139.026 19.7586 139.108 19.6891C139.191 19.6197 139.274 19.551 139.358 19.4831C139.436 19.4108 139.519 19.3436 139.605 19.2818C139.688 19.2228 139.776 19.1697 139.866 19.1226C139.953 19.0772 140.043 19.0382 140.136 19.006C140.227 18.9748 140.32 18.9509 140.414 18.9343C140.724 18.9063 141.033 19.0022 141.274 19.2015C141.547 19.4294 141.774 19.7075 141.944 20.0209C142.145 20.3759 142.317 20.7461 142.46 21.1281C142.611 21.5158 142.741 21.9061 142.859 22.2548C142.896 22.3646 142.933 22.4744 142.97 22.584C143.007 22.6936 143.045 22.8033 143.082 22.9131C143.12 23.0228 143.157 23.1324 143.195 23.242C143.233 23.3517 143.271 23.4612 143.309 23.5707C143.452 23.9869 143.598 24.4028 143.745 24.8184C143.892 25.234 144.041 25.6498 144.192 26.0657C144.342 26.4817 144.495 26.8975 144.649 27.3129C144.803 27.7283 144.959 28.144 145.116 28.5599C145.214 28.8168 145.312 29.0734 145.41 29.3298C145.509 29.5862 145.608 29.8429 145.709 30.1C145.809 30.3569 145.91 30.6136 146.011 30.8701C146.112 31.1267 146.214 31.3832 146.316 31.6396C146.637 32.4406 146.964 33.2402 147.297 34.0384C147.631 34.8395 147.972 35.6393 148.319 36.4378C148.666 37.2393 149.021 38.0398 149.383 38.8391C149.745 39.6414 150.114 40.4428 150.49 41.2432C150.99 42.3083 151.501 43.371 152.024 44.4314C152.549 45.4974 153.086 46.5614 153.635 47.6233C154.188 48.691 154.752 49.7572 155.329 50.822C155.909 51.8927 156.502 52.962 157.108 54.03C157.124 54.0571 157.13 54.0885 157.127 54.1196C157.125 54.1458 157.115 54.1707 157.098 54.1914C157.092 54.1999 157.084 54.2069 157.075 54.2117C157.066 54.2166 157.055 54.2191 157.045 54.2191C157.033 54.2171 157.021 54.2122 157.011 54.2047C157.002 54.1971 156.994 54.1873 156.989 54.1761Z" fill="white"/>
  <path d="M132.319 26.1051L132.268 26.0217L132.216 25.9383L132.165 25.8549L132.114 25.7714C131.978 25.5527 131.841 25.3352 131.699 25.1246C131.557 24.914 131.411 24.7094 131.259 24.5196C131.113 24.3332 130.955 24.1566 130.785 23.9909C130.626 23.8345 130.451 23.6944 130.264 23.5724C130.179 23.5156 130.09 23.4651 129.998 23.4213C129.91 23.3792 129.818 23.344 129.724 23.3161C129.632 23.2889 129.538 23.2692 129.443 23.2571C129.349 23.2452 129.254 23.2411 129.159 23.2449C129.06 23.2546 128.963 23.2713 128.866 23.2946C128.769 23.3184 128.673 23.3486 128.579 23.3852C128.483 23.4228 128.389 23.4664 128.298 23.5157C128.204 23.5668 128.113 23.6234 128.026 23.6852C127.984 23.7134 127.942 23.7425 127.9 23.7724C127.858 23.8024 127.816 23.8329 127.775 23.864C127.733 23.8959 127.692 23.9277 127.651 23.9596C127.61 23.9915 127.57 24.0244 127.529 24.0583C127.483 24.0966 127.437 24.1354 127.391 24.1747C127.345 24.2141 127.299 24.2539 127.253 24.2942C127.208 24.3342 127.163 24.3745 127.117 24.415L126.982 24.5366C126.897 24.6129 126.813 24.6899 126.73 24.7675C126.646 24.8451 126.563 24.9234 126.48 25.0025C126.397 25.0822 126.314 25.1618 126.232 25.2415C126.15 25.3212 126.068 25.4021 125.987 25.4844C125.825 25.6466 125.665 25.8114 125.506 25.9789C125.348 26.1464 125.191 26.3161 125.036 26.488C124.881 26.66 124.727 26.8345 124.575 27.0117C124.423 27.1889 124.273 27.3684 124.125 27.55C124.048 27.6444 123.972 27.7393 123.896 27.8347C123.82 27.9302 123.744 28.0263 123.669 28.123C123.594 28.2197 123.52 28.3171 123.446 28.4151C123.372 28.5131 123.298 28.6116 123.225 28.7108C123.157 28.8029 123.09 28.8954 123.023 28.9885C122.955 29.0816 122.889 29.1752 122.823 29.2694C122.756 29.3634 122.691 29.458 122.625 29.5531C122.56 29.6482 122.495 29.7438 122.43 29.8399C122.426 29.848 122.42 29.8547 122.412 29.8593C122.404 29.8638 122.395 29.8661 122.386 29.8657C122.378 29.864 122.371 29.8605 122.364 29.8555C122.357 29.8505 122.352 29.8441 122.348 29.8368C122.337 29.8187 122.331 29.798 122.33 29.7768C122.329 29.7533 122.335 29.7301 122.348 29.7106L122.4 29.6334L122.451 29.5574L122.503 29.4816L122.554 29.4063C122.603 29.3356 122.652 29.2651 122.701 29.195C122.75 29.1249 122.8 29.055 122.849 28.9852C122.899 28.9155 122.949 28.8461 122.999 28.777C123.049 28.7078 123.1 28.639 123.15 28.5705C123.242 28.445 123.335 28.3207 123.429 28.1976C123.523 28.0744 123.618 27.952 123.714 27.8304C123.808 27.7098 123.904 27.5897 124.001 27.4702C124.097 27.3507 124.195 27.2322 124.294 27.1148C124.447 26.9317 124.601 26.7512 124.758 26.5734C124.914 26.3955 125.072 26.2202 125.232 26.0475C125.392 25.8743 125.554 25.7038 125.717 25.536C125.88 25.3682 126.046 25.2027 126.213 25.0395C126.297 24.9581 126.381 24.8774 126.465 24.7974C126.549 24.7174 126.634 24.6377 126.72 24.5584C126.805 24.4796 126.891 24.4016 126.976 24.3244C127.062 24.2471 127.149 24.1704 127.236 24.0944L127.315 24.026C127.341 24.0034 127.368 23.981 127.394 23.9586C127.421 23.9363 127.448 23.9142 127.475 23.8922C127.501 23.8702 127.528 23.8485 127.555 23.8272C127.616 23.7765 127.678 23.7277 127.74 23.6807C127.803 23.6337 127.866 23.5886 127.93 23.5454C127.993 23.502 128.057 23.4607 128.123 23.4213C128.188 23.3819 128.253 23.3444 128.319 23.3087C128.41 23.2581 128.505 23.2143 128.603 23.1775C128.698 23.1419 128.795 23.1137 128.894 23.0931C128.991 23.0729 129.09 23.0605 129.189 23.0561C129.288 23.0518 129.387 23.0556 129.485 23.0676C129.581 23.0832 129.676 23.1057 129.769 23.1347C129.864 23.1644 129.957 23.2004 130.047 23.2425C130.139 23.286 130.229 23.3353 130.316 23.3902C130.406 23.4474 130.492 23.5099 130.575 23.5774C130.759 23.7245 130.93 23.8867 131.087 24.0624C131.253 24.2478 131.41 24.442 131.555 24.6442C131.705 24.8507 131.85 25.0675 131.992 25.2896C132.134 25.5116 132.273 25.7377 132.412 25.9631C132.425 25.9854 132.431 26.0112 132.429 26.037C132.427 26.0605 132.42 26.0833 132.407 26.1032C132.403 26.1112 132.397 26.1182 132.39 26.1237C132.382 26.1292 132.374 26.133 132.365 26.135C132.355 26.1353 132.346 26.1326 132.337 26.1273C132.329 26.122 132.323 26.1142 132.319 26.1051Z" fill="white"/>
  <path d="M148.715 35.6278L150.832 34.5947L151.9 34.0734C151.987 34.0267 152.074 33.9815 152.162 33.9378C152.25 33.8942 152.338 33.8519 152.427 33.8109C152.516 33.77 152.605 33.7306 152.696 33.6928C152.786 33.6551 152.876 33.6187 152.967 33.5836C153.045 33.5537 153.126 33.5313 153.208 33.5167C153.371 33.4879 153.538 33.4911 153.7 33.526C153.783 33.5439 153.864 33.5695 153.942 33.6025C154.013 33.6381 154.083 33.678 154.15 33.722C154.219 33.7671 154.285 33.816 154.349 33.8685C154.414 33.9227 154.476 33.9803 154.535 34.0411C154.596 34.1039 154.654 34.1697 154.709 34.2383C154.766 34.3081 154.821 34.3792 154.876 34.4517C154.931 34.5243 154.985 34.5981 155.038 34.6733C155.091 34.7485 155.143 34.8251 155.193 34.903C155.244 34.981 155.294 35.0602 155.343 35.1406C155.403 35.2375 155.464 35.3347 155.524 35.4322C155.584 35.5298 155.644 35.6275 155.704 35.7255L155.885 36.0198L156.066 36.3145C156.315 36.7207 156.564 37.1283 156.814 37.5374C157.063 37.9464 157.314 38.3579 157.566 38.7719C157.817 39.1863 158.068 39.6017 158.32 40.0182C158.572 40.4348 158.825 40.8541 159.078 41.2762C159.331 41.698 159.585 42.1214 159.84 42.5462C160.094 42.971 160.349 43.3983 160.604 43.8281C160.859 44.2583 161.115 44.6897 161.371 45.1222C161.627 45.5547 161.884 45.9901 162.141 46.4285C162.4 46.8675 162.658 47.3081 162.917 47.7503C163.175 48.1925 163.435 48.6372 163.695 49.0843C163.955 49.5316 164.216 49.9804 164.477 50.4308C164.738 50.8811 165 51.3341 165.262 51.7899L165.358 51.9572L165.455 52.1245L165.551 52.2918L165.648 52.4591C165.654 52.4721 165.663 52.4836 165.675 52.4928C165.686 52.5021 165.699 52.5089 165.713 52.5129C165.724 52.5158 165.736 52.5162 165.748 52.5142C165.76 52.5121 165.771 52.5077 165.781 52.5012C165.802 52.4879 165.817 52.4669 165.823 52.4427C165.829 52.4129 165.823 52.3818 165.807 52.3561C165.542 51.8951 165.277 51.4357 165.012 50.9779C164.748 50.5201 164.484 50.0649 164.221 49.6123C163.958 49.1599 163.695 48.709 163.433 48.2597C163.17 47.8103 162.909 47.3641 162.648 46.9211C162.386 46.476 162.125 46.0324 161.864 45.5902C161.603 45.148 161.343 44.7087 161.084 44.2722C160.825 43.8354 160.566 43.4002 160.307 42.9664C160.048 42.5326 159.789 42.1015 159.532 41.673C159.275 41.2445 159.018 40.8175 158.761 40.3918C158.504 39.9662 158.248 39.5432 157.993 39.1228C157.738 38.7025 157.484 38.2835 157.229 37.866C156.974 37.4485 156.721 37.0336 156.468 36.6214L156.278 36.3133L156.089 36.0059L155.899 35.6992L155.71 35.3933C155.657 35.3074 155.604 35.2214 155.551 35.1354C155.498 35.0493 155.445 34.964 155.391 34.8794C155.337 34.7948 155.283 34.7111 155.227 34.6284C155.172 34.5457 155.116 34.4646 155.058 34.3851C154.953 34.2395 154.841 34.1 154.721 33.967C154.606 33.8392 154.48 33.7217 154.345 33.6159C154.22 33.5166 154.082 33.4345 153.935 33.3718C153.792 33.3119 153.64 33.279 153.485 33.2748C153.394 33.279 153.303 33.2887 153.212 33.3039C153.122 33.3192 153.032 33.3398 152.944 33.3656C152.855 33.3918 152.768 33.423 152.682 33.4593C152.595 33.4963 152.51 33.5381 152.428 33.5846L152.155 33.717L151.884 33.8496L151.614 33.9823L151.345 34.1145L149.201 35.1626L148.673 35.4212C148.661 35.4271 148.651 35.4352 148.643 35.4452C148.635 35.4552 148.629 35.4669 148.626 35.4793C148.618 35.5052 148.617 35.5325 148.622 35.5589C148.626 35.5826 148.637 35.6045 148.654 35.6213C148.662 35.6289 148.672 35.6336 148.683 35.6347C148.694 35.6359 148.705 35.6335 148.715 35.6278Z" fill="white"/>
  <path d="M127.496 22.6784L127.397 22.7979C127.216 22.4303 126.977 22.0952 126.688 21.806C126.445 21.5614 126.152 21.3718 125.831 21.2498C125.534 21.1398 125.214 21.1061 124.901 21.1517C124.568 21.2045 124.251 21.3345 123.975 21.5313C123.662 21.7543 123.39 22.0307 123.171 22.3481C122.928 22.6981 122.732 23.0785 122.586 23.4796C122.426 23.9147 122.314 24.366 122.251 24.8256C122.183 25.3108 122.167 25.8017 122.201 26.2904C122.218 26.5341 122.248 26.7767 122.291 27.017C122.332 27.2488 122.387 27.4779 122.455 27.7033C122.52 27.9189 122.599 28.13 122.691 28.3355C122.778 28.5309 122.879 28.7197 122.993 28.9003L122.91 29.0323C122.791 28.8441 122.685 28.6475 122.595 28.444C122.499 28.2302 122.417 28.0104 122.349 27.786C122.279 27.5515 122.222 27.313 122.179 27.0717C122.134 26.8216 122.103 26.5691 122.085 26.3155C122.05 25.8069 122.067 25.2961 122.137 24.7912C122.202 24.3128 122.319 23.8431 122.485 23.3902C122.637 22.9726 122.842 22.5765 123.095 22.2121C123.322 21.8815 123.605 21.5935 123.931 21.3611C124.218 21.1557 124.548 21.02 124.896 20.9646C125.221 20.9167 125.554 20.9513 125.863 21.0655C126.198 21.1922 126.503 21.3893 126.757 21.6439C127.058 21.9454 127.308 22.2949 127.496 22.6784Z" fill="white"/>
  <path d="M137.493 34.9668C137.473 34.9483 137.454 34.9276 137.438 34.9049C137.421 34.8808 137.406 34.8551 137.394 34.8282C137.381 34.7996 137.37 34.7699 137.362 34.7395C137.353 34.7075 137.347 34.6748 137.344 34.6417C137.34 34.6083 137.339 34.5745 137.34 34.5409C137.342 34.5079 137.346 34.475 137.352 34.4426C137.358 34.4112 137.367 34.3804 137.378 34.3504C137.389 34.3216 137.402 34.2939 137.418 34.2677L137.007 28.2681L137.694 28.3159L137.885 34.2438C137.915 34.287 137.937 34.3344 137.952 34.3845C137.968 34.4368 137.977 34.4908 137.979 34.5454C137.981 34.6004 137.977 34.6555 137.966 34.7094C137.955 34.762 137.936 34.8127 137.911 34.86C137.889 34.9023 137.859 34.9402 137.823 34.9716C137.793 34.9991 137.757 35.0192 137.718 35.0304C137.68 35.0403 137.641 35.0403 137.604 35.0304C137.563 35.0183 137.525 34.9965 137.493 34.9668Z" fill="#9E616A"/>
  <path d="M137.974 28.0187L137.793 30.0208L137.818 31.2447L137.061 31.3529L136.911 30.3414L136.827 27.6619C136.824 27.5606 136.834 27.4594 136.857 27.3609C136.878 27.2706 136.912 27.1837 136.958 27.103C136.998 27.0303 137.051 26.9655 137.114 26.9118C137.172 26.8631 137.24 26.8294 137.313 26.8136C137.386 26.7986 137.461 26.8049 137.53 26.8317C137.601 26.8606 137.666 26.9058 137.717 26.9639C137.776 27.0302 137.823 27.1064 137.856 27.1891C137.894 27.284 137.918 27.3842 137.927 27.4862L137.974 28.0187Z" fill="#2F2E41"/>
  <path d="M135.104 45.4133L134.658 45.3827L134.446 42.8363L135.104 42.8719V45.4133Z" fill="#9E616A"/>
  <path d="M135.218 46.0601L133.785 45.9576V45.9308C133.785 45.8238 133.8 45.7172 133.829 45.6143C133.854 45.524 133.894 45.4385 133.947 45.3614C133.993 45.2942 134.054 45.2381 134.124 45.1972C134.19 45.1596 134.265 45.1422 134.34 45.147L135.219 45.2056L135.218 46.0601Z" fill="#2F2E41"/>
  <path d="M138.877 45.67L138.411 45.638L138.191 43.0383L138.877 43.0756V45.67Z" fill="#9E616A"/>
  <path d="M138.995 46.3302L137.502 46.2234V46.1961C137.501 46.0868 137.517 45.978 137.547 45.8732C137.574 45.7808 137.616 45.6936 137.671 45.6153C137.719 45.5464 137.782 45.4892 137.855 45.448C137.924 45.4096 138.002 45.3919 138.08 45.397L138.995 45.4582V46.3302Z" fill="#2F2E41"/>
  <path d="M137.081 22.9886C137.216 22.9816 137.35 23.0136 137.467 23.0809C137.593 23.154 137.701 23.2542 137.784 23.3742C137.88 23.5111 137.952 23.6632 137.998 23.824C138.051 24.0063 138.077 24.1953 138.076 24.3853C138.077 24.5776 138.05 24.7691 137.998 24.9539C137.951 25.1209 137.879 25.2796 137.784 25.4243C137.701 25.5524 137.593 25.6623 137.467 25.7477C137.352 25.8253 137.219 25.87 137.081 25.8768C136.946 25.8816 136.812 25.8476 136.696 25.7788C136.571 25.7043 136.464 25.6034 136.382 25.4831C136.288 25.3466 136.217 25.1953 136.171 25.0354C136.12 24.8548 136.094 24.6677 136.094 24.4797C136.094 24.2893 136.12 24.0999 136.171 23.9168C136.218 23.7508 136.289 23.593 136.382 23.4488C136.464 23.3209 136.571 23.2107 136.696 23.1244C136.809 23.045 136.943 22.9981 137.081 22.9886Z" fill="#9E616A"/>
  <path d="M136.953 26.4677L137.643 26.5573C137.73 26.7345 137.8 26.9196 137.852 27.1102C137.905 27.3079 137.942 27.5098 137.961 27.7138C137.982 27.9225 137.985 28.1326 137.971 28.3419C137.958 28.5525 137.927 28.7615 137.878 28.9668L137.357 31.1694C137.357 31.1694 137.402 31.3006 137.47 31.5279C137.538 31.7552 137.629 32.0801 137.719 32.4661C137.81 32.8521 137.901 33.3006 137.969 33.775C138.041 34.2606 138.079 34.7507 138.083 35.2417C138.111 35.9909 138.183 36.7378 138.3 37.4783C138.43 38.4167 138.604 39.4861 138.779 40.4948C138.954 41.5035 139.129 42.4572 139.261 43.1564C139.393 43.8555 139.481 44.3037 139.481 44.3037L137.519 44.4794L136.675 37.0151L135.526 44.3262L134.231 43.9375L134.942 34.3922L135.414 31.2313L135.435 29.6879C135.435 29.6879 135.422 29.6162 135.411 29.4967C135.396 29.3378 135.392 29.1781 135.397 29.0186C135.402 28.8097 135.429 28.6019 135.477 28.3986C135.527 28.1789 135.616 27.9699 135.738 27.7812L136.358 26.4947L136.953 26.4677Z" fill="#CACACA"/>
  <path d="M135.932 23.9749L137.382 23.9015V22.9753C137.305 22.9333 137.226 22.8955 137.145 22.8622C137.074 22.8316 136.999 22.8117 136.922 22.8032C136.854 22.7957 136.785 22.8091 136.724 22.8417C136.654 22.8843 136.597 22.9465 136.561 23.0209C136.473 23.0269 136.389 23.0568 136.316 23.1075C136.236 23.1629 136.168 23.2337 136.116 23.3157C136.056 23.4078 136.011 23.5087 135.981 23.6147C135.948 23.7319 135.932 23.8531 135.932 23.9749Z" fill="#2F2E41"/>
  <path d="M137.464 22.807C137.567 22.8018 137.669 22.8201 137.763 22.8604C137.858 22.9008 137.942 22.9622 138.009 23.0401C138.167 23.2234 138.285 23.4381 138.355 23.6702C138.442 23.9337 138.503 24.2049 138.537 24.4802C138.572 24.7357 138.589 24.9932 138.59 25.2511C138.591 25.3591 138.582 25.467 138.561 25.5731C138.547 25.651 138.519 25.7259 138.48 25.7946C138.448 25.85 138.404 25.8978 138.352 25.9349C138.301 25.9703 138.245 25.9965 138.185 26.0126L138.098 25.3434L137.894 26.0535L137.841 26.0554L137.787 26.0568H137.677L137.608 25.8537L137.454 26.0619C137.301 26.0681 137.155 26.0822 137.023 26.0858C136.905 26.094 136.786 26.0808 136.672 26.0468C136.621 26.0295 136.574 26.0019 136.534 25.9658C136.493 25.9296 136.46 25.8856 136.437 25.8365C136.372 25.6822 136.342 25.5148 136.351 25.3472C136.351 25.0911 136.367 24.8353 136.398 24.5811C136.43 24.3035 136.487 24.0294 136.569 23.7624C136.638 23.5216 136.753 23.2968 136.908 23.1008C136.976 23.0155 137.06 22.9454 137.156 22.8948C137.251 22.8442 137.356 22.8143 137.464 22.807Z" fill="#2F2E41"/>
  <path opacity="0.2" d="M136.179 31.6187L136.142 29.3023L136.046 28.2759L135.807 29.3002L136.179 31.6187Z" fill="black"/>
  <path d="M138.012 31.2915L136.912 31.3025V26.6197L138.012 26.5805C138.121 26.5773 138.229 26.6051 138.323 26.6608C138.424 26.7212 138.511 26.8027 138.578 26.8999C138.654 27.0105 138.713 27.1332 138.75 27.2629C138.792 27.4092 138.814 27.561 138.813 27.7135V30.122C138.814 30.2751 138.792 30.4276 138.75 30.5747C138.712 30.7068 138.654 30.832 138.578 30.9456C138.511 31.0462 138.424 31.1318 138.323 31.1971C138.23 31.2572 138.122 31.2903 138.012 31.2927V31.2915Z" fill="#FFD700"/>
  <path d="M137.858 28.7717C137.839 28.772 137.82 28.767 137.804 28.7571C137.786 28.7464 137.771 28.7321 137.76 28.7151C137.746 28.6957 137.736 28.6743 137.73 28.6517C137.723 28.6263 137.719 28.5999 137.719 28.5733V26.8263L137.997 26.8167V28.5664C137.997 28.5931 137.993 28.6196 137.986 28.6453C137.979 28.6683 137.969 28.6902 137.956 28.71C137.944 28.7277 137.929 28.7427 137.911 28.7543C137.895 28.7649 137.877 28.7708 137.857 28.7715L137.858 28.7717Z" fill="#3F3D56"/>
  <path d="M138.193 30.9194L137.385 30.9292C137.361 30.9293 137.338 30.9227 137.317 30.9101C137.295 30.8963 137.276 30.8779 137.262 30.8563C137.245 30.8318 137.233 30.8048 137.225 30.7762C137.215 30.7441 137.211 30.7109 137.211 30.6775V29.9788C137.211 29.9453 137.215 29.912 137.225 29.8799C137.233 29.8511 137.245 29.8239 137.262 29.7991C137.276 29.7768 137.295 29.7577 137.317 29.7431C137.338 29.7299 137.361 29.7225 137.385 29.7219L138.193 29.7068C138.217 29.7065 138.241 29.713 138.261 29.7257C138.284 29.7393 138.303 29.7576 138.317 29.7792C138.334 29.8038 138.347 29.831 138.355 29.8598C138.365 29.892 138.369 29.9254 138.369 29.959V30.662C138.369 30.6956 138.365 30.7291 138.355 30.7614C138.347 30.7904 138.334 30.8179 138.317 30.8429C138.303 30.8651 138.284 30.8841 138.261 30.8986C138.241 30.9117 138.217 30.9189 138.193 30.9194Z" fill="#3F3D56"/>
  <path d="M135.912 29.5301C135.858 29.4288 135.81 29.3236 135.77 29.2153C135.729 29.1031 135.695 28.9883 135.668 28.8716C135.641 28.7512 135.62 28.6292 135.608 28.5064C135.595 28.3807 135.589 28.2543 135.591 28.128C135.59 27.8843 135.615 27.6411 135.664 27.4025C135.706 27.1958 135.773 26.9951 135.863 26.805C135.935 26.6499 136.035 26.5102 136.159 26.3936C136.258 26.299 136.387 26.2422 136.523 26.233C136.598 26.2358 136.673 26.2527 136.743 26.2829C136.815 26.3149 136.882 26.3584 136.941 26.4118C137.006 26.4703 137.064 26.5374 137.111 26.6111C137.165 26.693 137.209 26.7808 137.242 26.8726L137.164 26.9467C137.134 26.8643 137.096 26.7855 137.048 26.7117C137.006 26.6454 136.955 26.585 136.897 26.532C136.845 26.4833 136.784 26.4433 136.719 26.4137C136.657 26.3857 136.591 26.3695 136.523 26.3659C136.399 26.3746 136.283 26.4273 136.195 26.5145C136.082 26.6233 135.991 26.7528 135.927 26.896C135.845 27.0732 135.785 27.2598 135.747 27.4518C135.703 27.6736 135.681 27.8993 135.681 28.1256C135.68 28.2442 135.685 28.3628 135.697 28.4808C135.709 28.5961 135.727 28.7106 135.753 28.8236C135.778 28.9332 135.809 29.041 135.848 29.1465C135.885 29.2482 135.93 29.3471 135.981 29.4424L135.912 29.5301Z" fill="#FFD700"/>
  <path d="M136.355 35.197C136.333 35.1753 136.314 35.1512 136.297 35.1253C136.28 35.0972 136.265 35.0675 136.252 35.0366C136.239 35.0045 136.229 34.9713 136.221 34.9374C136.213 34.902 136.208 34.8659 136.206 34.8296C136.203 34.793 136.203 34.7563 136.206 34.7197C136.208 34.684 136.214 34.6486 136.222 34.6138C136.23 34.5803 136.241 34.5475 136.254 34.5158C136.267 34.4855 136.283 34.4565 136.302 34.4293L136.099 27.8658L136.841 27.9753L136.808 34.4465C136.838 34.4958 136.86 34.5494 136.874 34.6054C136.905 34.7214 136.906 34.8433 136.877 34.9597C136.863 35.0158 136.84 35.0695 136.81 35.1188C136.784 35.1628 136.75 35.2013 136.71 35.2324C136.675 35.2591 136.634 35.2771 136.591 35.2847C136.55 35.2918 136.508 35.288 136.469 35.2737C136.425 35.2573 136.385 35.2312 136.353 35.1973L136.355 35.197Z" fill="#9E616A"/>
  <path d="M137.157 27.6746L136.879 29.8406L136.856 31.1754L136.033 31.2287L135.911 30.1155L135.929 27.1896C135.93 27.0795 135.945 26.9701 135.974 26.864C136 26.7678 136.04 26.6759 136.092 26.5913C136.139 26.5157 136.199 26.4496 136.27 26.3965C136.334 26.348 136.41 26.3169 136.489 26.3059C136.569 26.2957 136.65 26.3088 136.723 26.3437C136.8 26.3813 136.867 26.4358 136.92 26.5033C136.982 26.5804 137.029 26.6673 137.061 26.7605C137.099 26.8668 137.12 26.9779 137.126 27.0904L137.157 27.6746Z" fill="#CACACA"/>
  <path d="M137.236 47.2216C137.244 47.1931 137.258 47.1668 137.277 47.1449C137.296 47.1229 137.321 47.1059 137.348 47.0953C137.418 47.069 137.494 47.0608 137.569 47.0714C137.672 47.084 137.773 47.1099 137.869 47.1484C137.99 47.1954 138.107 47.2535 138.217 47.3219C138.334 47.3935 138.445 47.4746 138.549 47.5646C138.642 47.644 138.727 47.732 138.804 47.8275C138.867 47.9042 138.918 47.9897 138.956 48.0813C138.986 48.1475 138.995 48.2216 138.981 48.2931C138.974 48.3219 138.959 48.3484 138.94 48.3704C138.92 48.3925 138.895 48.4094 138.868 48.4198C138.796 48.4457 138.719 48.4532 138.643 48.4418C138.539 48.4286 138.438 48.4021 138.341 48.3629C138.219 48.3151 138.103 48.2563 137.992 48.1872C137.876 48.1158 137.765 48.0348 137.662 47.9451C137.57 47.8656 137.486 47.7775 137.411 47.6822C137.349 47.6062 137.298 47.5217 137.261 47.4312C137.231 47.3656 137.223 47.2923 137.236 47.2216Z" fill="white"/>
  <path d="M140.396 47.2555C140.407 47.229 140.425 47.206 140.448 47.1889C140.471 47.1717 140.498 47.161 140.526 47.158C140.604 47.1499 140.683 47.1609 140.757 47.19C140.862 47.2286 140.963 47.2794 141.056 47.3413C141.176 47.4186 141.289 47.5055 141.395 47.6011C141.506 47.7014 141.611 47.8097 141.707 47.9253C141.792 48.0273 141.869 48.1364 141.936 48.2513C141.991 48.3419 142.034 48.4395 142.062 48.5415C142.086 48.6117 142.086 48.6876 142.062 48.7578C142.051 48.7845 142.033 48.8076 142.01 48.8247C141.987 48.8418 141.959 48.8523 141.931 48.8551C141.851 48.8624 141.771 48.8506 141.697 48.8207C141.591 48.7811 141.49 48.7293 141.395 48.6665C141.276 48.5881 141.163 48.5002 141.058 48.4036C140.947 48.3037 140.843 48.1958 140.748 48.0809C140.664 47.9795 140.588 47.8713 140.521 47.7572C140.467 47.6675 140.425 47.5709 140.396 47.4699C140.374 47.4003 140.374 47.3251 140.396 47.2555Z" fill="white"/>
  <path d="M141.865 50.4458C141.876 50.4184 141.893 50.3944 141.916 50.376C141.938 50.3576 141.965 50.3455 141.994 50.3411C142.072 50.3292 142.153 50.3365 142.228 50.3623C142.336 50.3962 142.439 50.4425 142.536 50.5005C142.659 50.5728 142.776 50.6552 142.886 50.7467C143.003 50.8426 143.112 50.947 143.213 51.0591C143.303 51.158 143.384 51.2645 143.457 51.3773C143.515 51.4662 143.561 51.5627 143.593 51.6641C143.619 51.7343 143.622 51.8111 143.6 51.8828C143.59 51.9103 143.572 51.9344 143.549 51.9528C143.526 51.9711 143.499 51.983 143.47 51.9873C143.39 51.9983 143.309 51.9901 143.233 51.9633C143.124 51.9285 143.02 51.8811 142.922 51.8221C142.799 51.7493 142.682 51.6666 142.572 51.5747C142.456 51.4788 142.348 51.3745 142.247 51.2625C142.158 51.1641 142.078 51.0584 142.007 50.9463C141.949 50.8582 141.904 50.7627 141.872 50.6623C141.847 50.5927 141.845 50.5168 141.865 50.4458Z" fill="white"/>
  <path d="M145.016 51.7848C145.027 51.757 145.045 51.7325 145.068 51.7139C145.092 51.6954 145.119 51.6834 145.149 51.6792C145.23 51.6678 145.313 51.676 145.391 51.7031C145.503 51.7384 145.61 51.7865 145.71 51.8465C145.837 51.9205 145.959 52.0048 146.072 52.0984C146.192 52.1964 146.305 52.3032 146.41 52.4178C146.503 52.5191 146.587 52.6282 146.662 52.7438C146.722 52.8344 146.77 52.9329 146.804 53.0366C146.831 53.1079 146.833 53.186 146.811 53.2589C146.8 53.287 146.782 53.3116 146.758 53.3301C146.734 53.3487 146.706 53.3605 146.676 53.3643C146.593 53.3752 146.509 53.3663 146.43 53.3385C146.318 53.3024 146.21 53.2534 146.109 53.1927C145.982 53.1177 145.86 53.0325 145.746 52.9379C145.627 52.8397 145.515 52.7328 145.411 52.6181C145.32 52.5176 145.237 52.4095 145.163 52.2949C145.104 52.2051 145.057 52.1076 145.023 52.005C144.997 51.9343 144.995 51.857 145.016 51.7848Z" fill="white"/>
  <path d="M130.039 24.7011C129.83 24.552 129.594 24.4434 129.345 24.3808C129.112 24.3236 128.87 24.3138 128.633 24.3518C128.388 24.3924 128.153 24.478 127.939 24.6043C127.701 24.7453 127.486 24.9224 127.301 25.1294C127.671 25.2105 128.041 25.3003 128.412 25.3988C128.784 25.4973 129.157 25.605 129.531 25.7219C129.906 25.8391 130.282 25.965 130.657 26.0998C131.033 26.2347 131.41 26.3791 131.789 26.5332C131.629 26.3959 131.479 26.2475 131.34 26.0891C131.197 25.9289 131.056 25.7597 130.917 25.5926C130.779 25.4256 130.638 25.2609 130.492 25.1086C130.354 24.9594 130.202 24.823 130.039 24.7011Z" fill="white"/>
  <path d="M127.294 25.1273L127.131 25.3378C127.144 25.3195 127.158 25.3014 127.172 25.2836C127.186 25.2657 127.2 25.2481 127.215 25.2308C127.229 25.2134 127.243 25.1963 127.258 25.1796C127.273 25.1629 127.287 25.1462 127.302 25.1296L127.294 25.1273Z" fill="#F2F2F2"/>
  <path d="M154.625 35.714C154.578 35.6201 154.525 35.5292 154.466 35.442C154.41 35.3582 154.348 35.2784 154.281 35.203C154.216 35.1306 154.147 35.0631 154.072 35.001C154.001 34.941 153.925 34.8868 153.845 34.8389L153.542 34.8523C154.119 36.2197 154.75 37.5517 155.435 38.8484C156.123 40.1527 156.865 41.4182 157.66 42.6451C158.46 43.8802 159.313 45.0729 160.219 46.2231C161.132 47.3819 162.098 48.4939 163.117 49.559L160.928 45.9889L158.783 42.4928L156.683 39.0685L154.625 35.714Z" fill="white"/>
  <path d="M33.9682 50.3134C33.844 50.3133 33.7229 50.274 33.6221 50.2008C33.5212 50.1277 33.4456 50.0245 33.406 49.9057L33.1045 48.9994C33.0792 48.9249 33.0687 48.846 33.0738 48.7674C33.0788 48.6888 33.0992 48.6119 33.1337 48.5413C33.1683 48.4706 33.2164 48.4076 33.2752 48.3558C33.3341 48.3039 33.4025 48.2643 33.4765 48.2393C33.5506 48.2142 33.6288 48.2042 33.7067 48.2097C33.7846 48.2153 33.8607 48.2363 33.9305 48.2717C34.0003 48.307 34.0625 48.3559 34.1135 48.4155C34.1645 48.4752 34.2034 48.5444 34.2277 48.6193L34.5293 49.5256C34.579 49.6758 34.5677 49.8399 34.4977 49.9817C34.4278 50.1236 34.3049 50.2317 34.1561 50.2823C34.0956 50.3029 34.0321 50.3133 33.9682 50.3134Z" fill="#3F3D56"/>
  <path d="M34.6564 52.7104C34.5277 52.7101 34.4026 52.6675 34.3 52.5892C34.1973 52.5108 34.1228 52.4009 34.0875 52.276L33.8283 51.3563C33.7855 51.2039 33.8045 51.0407 33.881 50.9023C33.9575 50.764 34.0853 50.662 34.2363 50.6187C34.3874 50.5754 34.5493 50.5944 34.6864 50.6714C34.8236 50.7484 34.9249 50.8772 34.968 51.0295L35.2272 51.9492C35.2484 52.0247 35.2547 52.1037 35.2458 52.1817C35.2368 52.2596 35.2126 52.335 35.1748 52.4036C35.1369 52.4721 35.086 52.5325 35.025 52.5812C34.964 52.6299 34.894 52.666 34.8192 52.6874C34.7662 52.7027 34.7115 52.7104 34.6564 52.7104Z" fill="#3F3D56"/>
</svg>